<svg width="1312" height="20" viewBox="0 0 1312 20" fill="none" xmlns="http://www.w3.org/2000/svg">
<path d="M1197.97 15.14C1197.42 15.14 1196.9 15.0467 1196.4 14.86C1195.91 14.664 1195.47 14.3653 1195.09 13.964C1194.7 13.5533 1194.4 13.0353 1194.18 12.41C1193.95 11.7847 1193.84 11.038 1193.84 10.17V9.89C1193.84 9.05 1193.95 8.32667 1194.18 7.72C1194.4 7.11333 1194.7 6.614 1195.09 6.222C1195.47 5.83 1195.91 5.54067 1196.4 5.354C1196.9 5.158 1197.42 5.06 1197.97 5.06C1198.5 5.06 1198.99 5.13 1199.43 5.27C1199.87 5.41 1200.27 5.61067 1200.6 5.872C1200.94 6.13333 1201.21 6.45533 1201.41 6.838C1201.63 7.22067 1201.76 7.65467 1201.82 8.14H1200.42C1200.29 7.50533 1200.01 7.02933 1199.59 6.712C1199.17 6.39467 1198.63 6.236 1197.97 6.236C1197.62 6.236 1197.29 6.30133 1196.96 6.432C1196.64 6.56267 1196.34 6.77267 1196.08 7.062C1195.83 7.342 1195.62 7.71533 1195.46 8.182C1195.31 8.64867 1195.24 9.218 1195.24 9.89V10.17C1195.24 10.8793 1195.32 11.4767 1195.49 11.962C1195.66 12.438 1195.87 12.8253 1196.14 13.124C1196.4 13.4227 1196.69 13.6373 1197.02 13.768C1197.34 13.8987 1197.66 13.964 1197.97 13.964C1198.7 13.964 1199.27 13.7867 1199.68 13.432C1200.09 13.0773 1200.34 12.62 1200.42 12.06H1201.82C1201.75 12.6013 1201.6 13.068 1201.37 13.46C1201.15 13.8427 1200.86 14.16 1200.52 14.412C1200.18 14.664 1199.79 14.8507 1199.36 14.972C1198.93 15.084 1198.46 15.14 1197.97 15.14ZM1202.37 13.908H1203.28C1203.38 13.768 1203.48 13.5533 1203.56 13.264C1203.65 12.9747 1203.72 12.634 1203.79 12.242C1203.85 11.85 1203.9 11.4253 1203.93 10.968C1203.96 10.5013 1203.98 10.0253 1203.98 9.54V7.58H1209.16V13.908H1210.21V16.75H1209.04V15H1203.55V16.75H1202.37V13.908ZM1207.93 13.908V8.672H1205.19V9.82C1205.19 10.212 1205.17 10.604 1205.14 10.996C1205.12 11.3787 1205.07 11.7473 1205.02 12.102C1204.96 12.4473 1204.89 12.7787 1204.81 13.096C1204.73 13.404 1204.64 13.6747 1204.54 13.908H1207.93ZM1214.77 15.14C1214.29 15.14 1213.84 15.0653 1213.41 14.916C1212.98 14.7667 1212.6 14.538 1212.28 14.23C1211.95 13.9127 1211.69 13.516 1211.49 13.04C1211.3 12.564 1211.2 12.004 1211.2 11.36V11.08C1211.2 10.464 1211.29 9.932 1211.48 9.484C1211.67 9.02667 1211.91 8.64867 1212.22 8.35C1212.54 8.042 1212.9 7.81333 1213.31 7.664C1213.73 7.51467 1214.17 7.44 1214.63 7.44C1215.72 7.44 1216.57 7.73867 1217.16 8.336C1217.76 8.93333 1218.06 9.778 1218.06 10.87V11.654H1212.43C1212.43 12.0927 1212.5 12.4613 1212.64 12.76C1212.78 13.0587 1212.96 13.3013 1213.19 13.488C1213.41 13.6747 1213.66 13.81 1213.93 13.894C1214.21 13.978 1214.49 14.02 1214.77 14.02C1215.33 14.02 1215.76 13.9267 1216.06 13.74C1216.36 13.5533 1216.58 13.2967 1216.71 12.97H1217.92C1217.84 13.3247 1217.71 13.6373 1217.51 13.908C1217.33 14.1787 1217.09 14.4073 1216.81 14.594C1216.54 14.7713 1216.23 14.9067 1215.87 15C1215.53 15.0933 1215.16 15.14 1214.77 15.14ZM1214.7 8.56C1214.41 8.56 1214.13 8.602 1213.86 8.686C1213.59 8.76067 1213.35 8.88667 1213.13 9.064C1212.93 9.232 1212.76 9.44667 1212.63 9.708C1212.5 9.96933 1212.43 10.282 1212.43 10.646H1216.9C1216.89 10.2633 1216.82 9.94133 1216.7 9.68C1216.59 9.40933 1216.43 9.19467 1216.24 9.036C1216.04 8.868 1215.81 8.74667 1215.54 8.672C1215.28 8.59733 1215 8.56 1214.7 8.56ZM1219.32 15.14C1219.18 15.14 1219.04 15.126 1218.9 15.098V13.866C1218.95 13.8753 1219.02 13.88 1219.11 13.88C1219.32 13.88 1219.5 13.8147 1219.64 13.684C1219.8 13.5533 1219.93 13.3247 1220.02 12.998C1220.12 12.6713 1220.19 12.228 1220.23 11.668C1220.28 11.108 1220.3 10.3987 1220.3 9.54V7.58H1225.62V15H1224.39V8.672H1221.53V9.82C1221.53 10.856 1221.49 11.7147 1221.39 12.396C1221.3 13.0773 1221.16 13.6233 1220.97 14.034C1220.8 14.4353 1220.57 14.72 1220.29 14.888C1220.01 15.056 1219.69 15.14 1219.32 15.14ZM1229.98 15.14C1229.57 15.14 1229.2 15.084 1228.88 14.972C1228.58 14.8507 1228.31 14.6873 1228.1 14.482C1227.89 14.2767 1227.72 14.034 1227.61 13.754C1227.5 13.474 1227.44 13.166 1227.44 12.83C1227.44 12.0927 1227.66 11.5607 1228.09 11.234C1228.52 10.9073 1229.15 10.744 1229.96 10.744H1232.37V10.24C1232.37 9.60533 1232.23 9.16667 1231.94 8.924C1231.66 8.68133 1231.23 8.56 1230.66 8.56C1230.13 8.56 1229.74 8.66267 1229.5 8.868C1229.26 9.064 1229.12 9.288 1229.09 9.54H1227.86C1227.88 9.24133 1227.96 8.966 1228.1 8.714C1228.25 8.45267 1228.45 8.22867 1228.69 8.042C1228.94 7.85533 1229.24 7.71067 1229.58 7.608C1229.93 7.496 1230.31 7.44 1230.73 7.44C1231.61 7.44 1232.3 7.65 1232.82 8.07C1233.34 8.48067 1233.6 9.15733 1233.6 10.1V13.11C1233.6 13.502 1233.6 13.8473 1233.6 14.146C1233.61 14.4353 1233.63 14.72 1233.67 15H1232.59C1232.57 14.7853 1232.55 14.5847 1232.54 14.398C1232.53 14.202 1232.52 13.9827 1232.52 13.74C1232.33 14.132 1232.01 14.4633 1231.57 14.734C1231.13 15.0047 1230.6 15.14 1229.98 15.14ZM1230.24 14.02C1230.53 14.02 1230.8 13.9827 1231.05 13.908C1231.32 13.824 1231.54 13.7073 1231.74 13.558C1231.94 13.3993 1232.09 13.208 1232.2 12.984C1232.31 12.76 1232.37 12.4987 1232.37 12.2V11.696H1230.17C1229.71 11.696 1229.36 11.7893 1229.09 11.976C1228.83 12.1533 1228.7 12.438 1228.7 12.83C1228.7 13.1753 1228.82 13.46 1229.07 13.684C1229.32 13.908 1229.71 14.02 1230.24 14.02ZM1235.78 7.58H1237.01V10.674H1240.85V7.58H1242.08V15H1240.85V11.766H1237.01V15H1235.78V7.58ZM1247.4 15.14C1246.93 15.14 1246.47 15.0653 1246.05 14.916C1245.62 14.7573 1245.24 14.524 1244.91 14.216C1244.58 13.8987 1244.32 13.502 1244.13 13.026C1243.93 12.55 1243.83 11.9947 1243.83 11.36V11.08C1243.83 10.4827 1243.93 9.95533 1244.13 9.498C1244.32 9.04067 1244.58 8.66267 1244.91 8.364C1245.24 8.056 1245.62 7.82733 1246.05 7.678C1246.47 7.51933 1246.93 7.44 1247.4 7.44C1247.88 7.44 1248.33 7.51933 1248.76 7.678C1249.19 7.82733 1249.57 8.056 1249.9 8.364C1250.22 8.66267 1250.48 9.04067 1250.68 9.498C1250.88 9.95533 1250.97 10.4827 1250.97 11.08V11.36C1250.97 11.9947 1250.88 12.55 1250.68 13.026C1250.48 13.502 1250.22 13.8987 1249.9 14.216C1249.57 14.524 1249.19 14.7573 1248.76 14.916C1248.33 15.0653 1247.88 15.14 1247.4 15.14ZM1247.4 14.02C1247.68 14.02 1247.96 13.9733 1248.24 13.88C1248.52 13.7773 1248.77 13.6233 1248.99 13.418C1249.2 13.2033 1249.37 12.928 1249.5 12.592C1249.64 12.256 1249.71 11.8453 1249.71 11.36V11.08C1249.71 10.632 1249.64 10.2493 1249.5 9.932C1249.37 9.61467 1249.2 9.35333 1248.99 9.148C1248.77 8.94267 1248.52 8.79333 1248.24 8.7C1247.96 8.60667 1247.68 8.56 1247.4 8.56C1247.12 8.56 1246.84 8.60667 1246.56 8.7C1246.28 8.79333 1246.04 8.94267 1245.82 9.148C1245.61 9.35333 1245.43 9.61467 1245.29 9.932C1245.16 10.2493 1245.09 10.632 1245.09 11.08V11.36C1245.09 11.8453 1245.16 12.256 1245.29 12.592C1245.43 12.928 1245.61 13.2033 1245.82 13.418C1246.04 13.6233 1246.28 13.7773 1246.56 13.88C1246.84 13.9733 1247.12 14.02 1247.4 14.02ZM1256.22 7.58H1259.44C1260.35 7.58 1261.02 7.77133 1261.45 8.154C1261.88 8.52733 1262.1 9.01267 1262.1 9.61C1262.1 9.76867 1262.07 9.932 1262.01 10.1C1261.96 10.2587 1261.88 10.408 1261.78 10.548C1261.68 10.688 1261.57 10.8093 1261.43 10.912C1261.29 11.0147 1261.15 11.094 1260.98 11.15C1261.43 11.262 1261.78 11.4767 1262.01 11.794C1262.26 12.102 1262.38 12.466 1262.38 12.886C1262.38 13.53 1262.16 14.0433 1261.73 14.426C1261.3 14.8087 1260.63 15 1259.72 15H1256.22V7.58ZM1259.72 13.908C1260.24 13.908 1260.61 13.8147 1260.82 13.628C1261.04 13.4413 1261.15 13.1753 1261.15 12.83C1261.15 12.4753 1261.04 12.2047 1260.82 12.018C1260.61 11.822 1260.24 11.724 1259.72 11.724H1257.45V13.908H1259.72ZM1259.44 10.716C1259.97 10.716 1260.34 10.6227 1260.54 10.436C1260.76 10.2493 1260.87 9.99267 1260.87 9.666C1260.87 9.358 1260.76 9.11533 1260.54 8.938C1260.34 8.76067 1259.97 8.672 1259.44 8.672H1257.45V10.716H1259.44Z" fill="#424858"/>
<path d="M1267.63 7.58H1268.78V8.98C1269.03 8.48533 1269.38 8.10733 1269.83 7.846C1270.29 7.57533 1270.82 7.44 1271.41 7.44C1272.35 7.44 1273.09 7.748 1273.65 8.364C1274.21 8.97067 1274.49 9.876 1274.49 11.08V11.36C1274.49 11.9947 1274.42 12.55 1274.27 13.026C1274.12 13.4927 1273.91 13.8847 1273.64 14.202C1273.37 14.51 1273.04 14.7433 1272.66 14.902C1272.29 15.0607 1271.87 15.14 1271.41 15.14C1270.78 15.14 1270.25 15 1269.82 14.72C1269.4 14.44 1269.08 14.09 1268.87 13.67V17.8H1267.63V7.58ZM1271.13 14.048C1271.43 14.048 1271.71 13.992 1271.97 13.88C1272.24 13.7587 1272.46 13.586 1272.65 13.362C1272.84 13.138 1272.99 12.858 1273.09 12.522C1273.21 12.186 1273.26 11.7987 1273.26 11.36V11.08C1273.26 10.6787 1273.21 10.3193 1273.09 10.002C1272.99 9.68467 1272.84 9.41867 1272.65 9.204C1272.46 8.98 1272.24 8.812 1271.97 8.7C1271.71 8.588 1271.43 8.532 1271.13 8.532C1270.8 8.532 1270.49 8.588 1270.21 8.7C1269.93 8.80267 1269.69 8.952 1269.5 9.148C1269.3 9.33467 1269.15 9.55867 1269.03 9.82C1268.92 10.0813 1268.87 10.3613 1268.87 10.66V11.78C1268.87 12.116 1268.92 12.424 1269.03 12.704C1269.15 12.984 1269.3 13.222 1269.5 13.418C1269.69 13.614 1269.93 13.768 1270.21 13.88C1270.49 13.992 1270.8 14.048 1271.13 14.048ZM1276.39 7.58H1277.62V15H1276.39V7.58ZM1277 6.6C1276.76 6.6 1276.56 6.52067 1276.4 6.362C1276.24 6.20333 1276.16 6.00267 1276.16 5.76C1276.16 5.51733 1276.24 5.31667 1276.4 5.158C1276.56 4.99933 1276.76 4.92 1277 4.92C1277.25 4.92 1277.45 4.99933 1277.6 5.158C1277.76 5.31667 1277.84 5.51733 1277.84 5.76C1277.84 6.00267 1277.76 6.20333 1277.6 6.362C1277.45 6.52067 1277.25 6.6 1277 6.6ZM1282.72 15.07C1281.93 15.07 1281.36 14.8927 1281 14.538C1280.66 14.174 1280.48 13.628 1280.48 12.9V8.672H1279.36V7.58H1280.48V5.9H1281.72V7.58H1283.7V8.672H1281.72V12.76C1281.72 13.18 1281.8 13.4833 1281.98 13.67C1282.16 13.8567 1282.5 13.95 1283 13.95C1283.28 13.95 1283.56 13.936 1283.84 13.908V15C1283.67 15.0187 1283.49 15.0327 1283.31 15.042C1283.13 15.0607 1282.94 15.07 1282.72 15.07ZM1287 15.14C1286.73 15.14 1286.5 15.0467 1286.3 14.86C1286.12 14.664 1286.02 14.4307 1286.02 14.16C1286.02 13.88 1286.12 13.6467 1286.3 13.46C1286.5 13.2733 1286.73 13.18 1287 13.18C1287.27 13.18 1287.5 13.2733 1287.69 13.46C1287.88 13.6467 1287.98 13.88 1287.98 14.16C1287.98 14.4307 1287.88 14.664 1287.69 14.86C1287.5 15.0467 1287.27 15.14 1287 15.14ZM1290.22 7.58H1291.37V8.98C1291.53 8.54133 1291.79 8.17733 1292.15 7.888C1292.52 7.58933 1292.98 7.44 1293.51 7.44C1293.7 7.44 1293.85 7.44933 1293.96 7.468C1294.08 7.48667 1294.19 7.51 1294.28 7.538V8.686C1294.16 8.63933 1294.04 8.60667 1293.92 8.588C1293.8 8.56933 1293.64 8.56 1293.44 8.56C1293.16 8.56 1292.9 8.61133 1292.66 8.714C1292.41 8.81667 1292.2 8.96133 1292.03 9.148C1291.85 9.32533 1291.71 9.54467 1291.61 9.806C1291.5 10.0673 1291.45 10.352 1291.45 10.66V15H1290.22V7.58ZM1298.62 15.14C1298.14 15.14 1297.69 15.0653 1297.26 14.916C1296.83 14.7667 1296.45 14.538 1296.13 14.23C1295.8 13.9127 1295.54 13.516 1295.34 13.04C1295.15 12.564 1295.05 12.004 1295.05 11.36V11.08C1295.05 10.464 1295.14 9.932 1295.33 9.484C1295.51 9.02667 1295.76 8.64867 1296.07 8.35C1296.39 8.042 1296.75 7.81333 1297.16 7.664C1297.58 7.51467 1298.02 7.44 1298.48 7.44C1299.57 7.44 1300.41 7.73867 1301.01 8.336C1301.61 8.93333 1301.91 9.778 1301.91 10.87V11.654H1296.28C1296.28 12.0927 1296.35 12.4613 1296.49 12.76C1296.63 13.0587 1296.81 13.3013 1297.04 13.488C1297.26 13.6747 1297.51 13.81 1297.78 13.894C1298.06 13.978 1298.34 14.02 1298.62 14.02C1299.18 14.02 1299.61 13.9267 1299.91 13.74C1300.21 13.5533 1300.43 13.2967 1300.56 12.97H1301.77C1301.69 13.3247 1301.56 13.6373 1301.36 13.908C1301.18 14.1787 1300.94 14.4073 1300.66 14.594C1300.39 14.7713 1300.08 14.9067 1299.72 15C1299.38 15.0933 1299.01 15.14 1298.62 15.14ZM1298.55 8.56C1298.26 8.56 1297.98 8.602 1297.71 8.686C1297.44 8.76067 1297.19 8.88667 1296.98 9.064C1296.77 9.232 1296.61 9.44667 1296.48 9.708C1296.35 9.96933 1296.28 10.282 1296.28 10.646H1300.75C1300.74 10.2633 1300.67 9.94133 1300.55 9.68C1300.44 9.40933 1300.28 9.19467 1300.09 9.036C1299.89 8.868 1299.66 8.74667 1299.39 8.672C1299.13 8.59733 1298.85 8.56 1298.55 8.56ZM1306.25 15.14C1305.79 15.14 1305.37 15.0607 1304.99 14.902C1304.62 14.7433 1304.29 14.51 1304.02 14.202C1303.75 13.8847 1303.54 13.4927 1303.39 13.026C1303.24 12.55 1303.17 11.9947 1303.17 11.36V11.08C1303.17 10.492 1303.24 9.974 1303.39 9.526C1303.55 9.06867 1303.77 8.686 1304.04 8.378C1304.31 8.07 1304.63 7.83667 1305 7.678C1305.39 7.51933 1305.8 7.44 1306.25 7.44C1306.85 7.44 1307.36 7.57067 1307.8 7.832C1308.25 8.09333 1308.58 8.45267 1308.8 8.91V5.2H1310.03V15H1308.88V13.6C1308.69 14.0573 1308.37 14.4307 1307.9 14.72C1307.43 15 1306.88 15.14 1306.25 15.14ZM1306.53 14.048C1306.87 14.048 1307.17 13.992 1307.45 13.88C1307.73 13.768 1307.97 13.614 1308.17 13.418C1308.36 13.222 1308.52 12.984 1308.63 12.704C1308.74 12.424 1308.8 12.116 1308.8 11.78V10.66C1308.8 10.3613 1308.74 10.0813 1308.63 9.82C1308.52 9.55867 1308.36 9.33467 1308.17 9.148C1307.97 8.952 1307.73 8.80267 1307.45 8.7C1307.17 8.588 1306.87 8.532 1306.53 8.532C1306.23 8.532 1305.95 8.588 1305.69 8.7C1305.43 8.812 1305.2 8.98 1305 9.204C1304.82 9.41867 1304.67 9.68467 1304.56 10.002C1304.45 10.3193 1304.4 10.6787 1304.4 11.08V11.36C1304.4 11.7987 1304.45 12.186 1304.56 12.522C1304.67 12.858 1304.82 13.138 1305 13.362C1305.2 13.586 1305.43 13.7587 1305.69 13.88C1305.95 13.992 1306.23 14.048 1306.53 14.048Z" fill="#25136E"/>
<path d="M1266.51 16.4H1311.15V17.1H1266.51V16.4Z" fill="#25136E"/>
<path d="M778.4 5.2H786.1V15H784.784V6.348H779.716V15H778.4V5.2ZM791.7 15.14C791.224 15.14 790.771 15.0653 790.342 14.916C789.913 14.7573 789.535 14.524 789.208 14.216C788.881 13.8987 788.62 13.502 788.424 13.026C788.228 12.55 788.13 11.9947 788.13 11.36V11.08C788.13 10.4827 788.228 9.95533 788.424 9.498C788.62 9.04067 788.881 8.66267 789.208 8.364C789.535 8.056 789.913 7.82733 790.342 7.678C790.771 7.51933 791.224 7.44 791.7 7.44C792.176 7.44 792.629 7.51933 793.058 7.678C793.487 7.82733 793.865 8.056 794.192 8.364C794.519 8.66267 794.78 9.04067 794.976 9.498C795.172 9.95533 795.27 10.4827 795.27 11.08V11.36C795.27 11.9947 795.172 12.55 794.976 13.026C794.78 13.502 794.519 13.8987 794.192 14.216C793.865 14.524 793.487 14.7573 793.058 14.916C792.629 15.0653 792.176 15.14 791.7 15.14ZM791.7 14.02C791.98 14.02 792.26 13.9733 792.54 13.88C792.82 13.7773 793.067 13.6233 793.282 13.418C793.497 13.2033 793.669 12.928 793.8 12.592C793.94 12.256 794.01 11.8453 794.01 11.36V11.08C794.01 10.632 793.94 10.2493 793.8 9.932C793.669 9.61467 793.497 9.35333 793.282 9.148C793.067 8.94267 792.82 8.79333 792.54 8.7C792.26 8.60667 791.98 8.56 791.7 8.56C791.42 8.56 791.14 8.60667 790.86 8.7C790.58 8.79333 790.333 8.94267 790.118 9.148C789.903 9.35333 789.726 9.61467 789.586 9.932C789.455 10.2493 789.39 10.632 789.39 11.08V11.36C789.39 11.8453 789.455 12.256 789.586 12.592C789.726 12.928 789.903 13.2033 790.118 13.418C790.333 13.6233 790.58 13.7773 790.86 13.88C791.14 13.9733 791.42 14.02 791.7 14.02ZM796.528 15.14C796.388 15.14 796.248 15.126 796.108 15.098V13.866C796.154 13.8753 796.224 13.88 796.318 13.88C796.523 13.88 796.7 13.8147 796.85 13.684C797.008 13.5533 797.134 13.3247 797.228 12.998C797.321 12.6713 797.391 12.228 797.438 11.668C797.484 11.108 797.508 10.3987 797.508 9.54V7.58H802.828V15H801.596V8.672H798.74V9.82C798.74 10.856 798.693 11.7147 798.6 12.396C798.506 13.0773 798.366 13.6233 798.18 14.034C798.002 14.4353 797.774 14.72 797.494 14.888C797.214 15.056 796.892 15.14 796.528 15.14ZM805.067 7.58H806.299V13.18L810.135 7.58H811.367V15H810.135V9.4L806.299 15H805.067V7.58ZM815.306 8.672H812.772V7.58H819.072V8.672H816.538V15H815.306V8.672ZM820.475 7.58H821.707V13.18L825.543 7.58H826.775V15H825.543V9.4L821.707 15H820.475V7.58ZM829.02 7.58H830.252V10.688H831.232L834.004 7.58H835.46L832.24 11.136L835.6 15H834.032L831.232 11.752H830.252V15H829.02V7.58ZM839.05 15.14C838.64 15.14 838.276 15.084 837.958 14.972C837.65 14.8507 837.389 14.6873 837.174 14.482C836.96 14.2767 836.796 14.034 836.684 13.754C836.572 13.474 836.516 13.166 836.516 12.83C836.516 12.0927 836.731 11.5607 837.16 11.234C837.599 10.9073 838.224 10.744 839.036 10.744H841.444V10.24C841.444 9.60533 841.3 9.16667 841.01 8.924C840.73 8.68133 840.306 8.56 839.736 8.56C839.204 8.56 838.817 8.66267 838.574 8.868C838.332 9.064 838.196 9.288 838.168 9.54H836.936C836.955 9.24133 837.034 8.966 837.174 8.714C837.324 8.45267 837.52 8.22867 837.762 8.042C838.014 7.85533 838.313 7.71067 838.658 7.608C839.004 7.496 839.386 7.44 839.806 7.44C840.684 7.44 841.379 7.65 841.892 8.07C842.415 8.48067 842.676 9.15733 842.676 10.1V13.11C842.676 13.502 842.676 13.8473 842.676 14.146C842.686 14.4353 842.709 14.72 842.746 15H841.668C841.64 14.7853 841.622 14.5847 841.612 14.398C841.603 14.202 841.598 13.9827 841.598 13.74C841.402 14.132 841.085 14.4633 840.646 14.734C840.208 15.0047 839.676 15.14 839.05 15.14ZM839.316 14.02C839.606 14.02 839.876 13.9827 840.128 13.908C840.39 13.824 840.618 13.7073 840.814 13.558C841.01 13.3993 841.164 13.208 841.276 12.984C841.388 12.76 841.444 12.4987 841.444 12.2V11.696H839.246C838.789 11.696 838.43 11.7893 838.168 11.976C837.907 12.1533 837.776 12.438 837.776 12.83C837.776 13.1753 837.898 13.46 838.14 13.684C838.392 13.908 838.784 14.02 839.316 14.02ZM848.352 7.58H849.584V10.688H850.564L853.336 7.58H854.792L851.572 11.136L854.932 15H853.364L850.564 11.752H849.584V15H848.352V7.58ZM859.212 15.14C858.736 15.14 858.283 15.0653 857.854 14.916C857.424 14.7573 857.046 14.524 856.72 14.216C856.393 13.8987 856.132 13.502 855.936 13.026C855.74 12.55 855.642 11.9947 855.642 11.36V11.08C855.642 10.4827 855.74 9.95533 855.936 9.498C856.132 9.04067 856.393 8.66267 856.72 8.364C857.046 8.056 857.424 7.82733 857.854 7.678C858.283 7.51933 858.736 7.44 859.212 7.44C859.688 7.44 860.14 7.51933 860.57 7.678C860.999 7.82733 861.377 8.056 861.704 8.364C862.03 8.66267 862.292 9.04067 862.488 9.498C862.684 9.95533 862.782 10.4827 862.782 11.08V11.36C862.782 11.9947 862.684 12.55 862.488 13.026C862.292 13.502 862.03 13.8987 861.704 14.216C861.377 14.524 860.999 14.7573 860.57 14.916C860.14 15.0653 859.688 15.14 859.212 15.14ZM859.212 14.02C859.492 14.02 859.772 13.9733 860.052 13.88C860.332 13.7773 860.579 13.6233 860.794 13.418C861.008 13.2033 861.181 12.928 861.312 12.592C861.452 12.256 861.522 11.8453 861.522 11.36V11.08C861.522 10.632 861.452 10.2493 861.312 9.932C861.181 9.61467 861.008 9.35333 860.794 9.148C860.579 8.94267 860.332 8.79333 860.052 8.7C859.772 8.60667 859.492 8.56 859.212 8.56C858.932 8.56 858.652 8.60667 858.372 8.7C858.092 8.79333 857.844 8.94267 857.63 9.148C857.415 9.35333 857.238 9.61467 857.098 9.932C856.967 10.2493 856.902 10.632 856.902 11.08V11.36C856.902 11.8453 856.967 12.256 857.098 12.592C857.238 12.928 857.415 13.2033 857.63 13.418C857.844 13.6233 858.092 13.7773 858.372 13.88C858.652 13.9733 858.932 14.02 859.212 14.02ZM864.526 7.58H865.758V10.674H869.594V7.58H870.826V15H869.594V11.766H865.758V15H864.526V7.58ZM876.515 15.14C875.227 15.14 874.247 14.8133 873.575 14.16C872.913 13.5067 872.581 12.578 872.581 11.374V11.094C872.581 9.946 872.913 9.05 873.575 8.406C874.247 7.762 875.227 7.44 876.515 7.44V5.2H877.747V7.44C879.035 7.44 880.011 7.762 880.673 8.406C881.345 9.05 881.681 9.946 881.681 11.094V11.374C881.681 12.578 881.345 13.5067 880.673 14.16C880.011 14.8133 879.035 15.14 877.747 15.14V17.8H876.515V15.14ZM880.421 11.094C880.421 10.2447 880.202 9.61 879.763 9.19C879.334 8.77 878.657 8.56 877.733 8.56V14.02C878.657 14.02 879.334 13.8053 879.763 13.376C880.202 12.9467 880.421 12.2793 880.421 11.374V11.094ZM873.841 11.374C873.841 12.2793 874.056 12.9467 874.485 13.376C874.924 13.8053 875.605 14.02 876.529 14.02V8.56C875.605 8.56 874.924 8.77 874.485 9.19C874.056 9.61 873.841 10.2447 873.841 11.094V11.374ZM883.434 7.58H884.666V13.18L888.502 7.58H889.734V15H888.502V9.4L884.666 15H883.434V7.58ZM891.139 13.908H892.049C892.152 13.768 892.245 13.5533 892.329 13.264C892.413 12.9747 892.488 12.634 892.553 12.242C892.619 11.85 892.665 11.4253 892.693 10.968C892.731 10.5013 892.749 10.0253 892.749 9.54V7.58H897.929V13.908H898.979V16.75H897.803V15H892.315V16.75H891.139V13.908ZM896.697 13.908V8.672H893.953V9.82C893.953 10.212 893.939 10.604 893.911 10.996C893.883 11.3787 893.841 11.7473 893.785 12.102C893.729 12.4473 893.659 12.7787 893.575 13.096C893.501 13.404 893.412 13.6747 893.309 13.908H896.697ZM903.536 15.14C903.06 15.14 902.607 15.0653 902.178 14.916C901.749 14.7667 901.371 14.538 901.044 14.23C900.717 13.9127 900.456 13.516 900.26 13.04C900.064 12.564 899.966 12.004 899.966 11.36V11.08C899.966 10.464 900.059 9.932 900.246 9.484C900.433 9.02667 900.68 8.64867 900.988 8.35C901.305 8.042 901.669 7.81333 902.08 7.664C902.5 7.51467 902.939 7.44 903.396 7.44C904.488 7.44 905.333 7.73867 905.93 8.336C906.527 8.93333 906.826 9.778 906.826 10.87V11.654H901.198C901.198 12.0927 901.268 12.4613 901.408 12.76C901.548 13.0587 901.73 13.3013 901.954 13.488C902.178 13.6747 902.425 13.81 902.696 13.894C902.976 13.978 903.256 14.02 903.536 14.02C904.096 14.02 904.525 13.9267 904.824 13.74C905.132 13.5533 905.351 13.2967 905.482 12.97H906.686C906.611 13.3247 906.476 13.6373 906.28 13.908C906.093 14.1787 905.86 14.4073 905.58 14.594C905.309 14.7713 904.997 14.9067 904.642 15C904.297 15.0933 903.928 15.14 903.536 15.14ZM903.466 8.56C903.177 8.56 902.897 8.602 902.626 8.686C902.355 8.76067 902.113 8.88667 901.898 9.064C901.693 9.232 901.525 9.44667 901.394 9.708C901.263 9.96933 901.198 10.282 901.198 10.646H905.664C905.655 10.2633 905.589 9.94133 905.468 9.68C905.356 9.40933 905.202 9.19467 905.006 9.036C904.81 8.868 904.577 8.74667 904.306 8.672C904.045 8.59733 903.765 8.56 903.466 8.56ZM908.577 7.58H909.809V10.674H913.645V7.58H914.877V15H913.645V11.766H909.809V15H908.577V7.58ZM923.156 15H917.122V7.58H918.354V13.908H921.91V7.58H923.142V13.908H924.332V16.75H923.156V15ZM925.804 7.58H927.036V13.18L930.872 7.58H932.104V15H930.872V9.4L927.036 15H925.804V7.58ZM936.463 15.14C936.052 15.14 935.688 15.084 935.371 14.972C935.063 14.8507 934.801 14.6873 934.587 14.482C934.372 14.2767 934.209 14.034 934.097 13.754C933.985 13.474 933.929 13.166 933.929 12.83C933.929 12.0927 934.143 11.5607 934.573 11.234C935.011 10.9073 935.637 10.744 936.449 10.744H938.857V10.24C938.857 9.60533 938.712 9.16667 938.423 8.924C938.143 8.68133 937.718 8.56 937.149 8.56C936.617 8.56 936.229 8.66267 935.987 8.868C935.744 9.064 935.609 9.288 935.581 9.54H934.349C934.367 9.24133 934.447 8.966 934.587 8.714C934.736 8.45267 934.932 8.22867 935.175 8.042C935.427 7.85533 935.725 7.71067 936.071 7.608C936.416 7.496 936.799 7.44 937.219 7.44C938.096 7.44 938.791 7.65 939.305 8.07C939.827 8.48067 940.089 9.15733 940.089 10.1V13.11C940.089 13.502 940.089 13.8473 940.089 14.146C940.098 14.4353 940.121 14.72 940.159 15H939.081C939.053 14.7853 939.034 14.5847 939.025 14.398C939.015 14.202 939.011 13.9827 939.011 13.74C938.815 14.132 938.497 14.4633 938.059 14.734C937.62 15.0047 937.088 15.14 936.463 15.14ZM936.729 14.02C937.018 14.02 937.289 13.9827 937.541 13.908C937.802 13.824 938.031 13.7073 938.227 13.558C938.423 13.3993 938.577 13.208 938.689 12.984C938.801 12.76 938.857 12.4987 938.857 12.2V11.696H936.659C936.201 11.696 935.842 11.7893 935.581 11.976C935.319 12.1533 935.189 12.438 935.189 12.83C935.189 13.1753 935.31 13.46 935.553 13.684C935.805 13.908 936.197 14.02 936.729 14.02ZM941.915 15.14C941.775 15.14 941.635 15.126 941.495 15.098V13.866C941.541 13.8753 941.611 13.88 941.705 13.88C941.91 13.88 942.087 13.8147 942.237 13.684C942.395 13.5533 942.521 13.3247 942.615 12.998C942.708 12.6713 942.778 12.228 942.825 11.668C942.871 11.108 942.895 10.3987 942.895 9.54V7.58H948.215V15H946.983V8.672H944.127V9.82C944.127 10.856 944.08 11.7147 943.987 12.396C943.893 13.0773 943.753 13.6233 943.567 14.034C943.389 14.4353 943.161 14.72 942.881 14.888C942.601 15.056 942.279 15.14 941.915 15.14ZM950.454 7.58H951.686V10.38H953.464C954.397 10.38 955.083 10.5853 955.522 10.996C955.97 11.4067 956.194 11.976 956.194 12.704C956.194 13.4133 955.97 13.9733 955.522 14.384C955.083 14.7947 954.397 15 953.464 15H950.454V7.58ZM953.394 13.908C953.973 13.908 954.379 13.8053 954.612 13.6C954.845 13.3947 954.962 13.0913 954.962 12.69C954.962 12.2887 954.845 11.9853 954.612 11.78C954.379 11.5747 953.973 11.472 953.394 11.472H951.686V13.908H953.394ZM957.809 7.58H959.041V10.674H962.877V7.58H964.109V15H962.877V11.766H959.041V15H957.809V7.58ZM969.434 15.14C968.958 15.14 968.506 15.0653 968.076 14.916C967.647 14.7573 967.269 14.524 966.942 14.216C966.616 13.8987 966.354 13.502 966.158 13.026C965.962 12.55 965.864 11.9947 965.864 11.36V11.08C965.864 10.4827 965.962 9.95533 966.158 9.498C966.354 9.04067 966.616 8.66267 966.942 8.364C967.269 8.056 967.647 7.82733 968.076 7.678C968.506 7.51933 968.958 7.44 969.434 7.44C969.91 7.44 970.363 7.51933 970.792 7.678C971.222 7.82733 971.6 8.056 971.926 8.364C972.253 8.66267 972.514 9.04067 972.71 9.498C972.906 9.95533 973.004 10.4827 973.004 11.08V11.36C973.004 11.9947 972.906 12.55 972.71 13.026C972.514 13.502 972.253 13.8987 971.926 14.216C971.6 14.524 971.222 14.7573 970.792 14.916C970.363 15.0653 969.91 15.14 969.434 15.14ZM969.434 14.02C969.714 14.02 969.994 13.9733 970.274 13.88C970.554 13.7773 970.802 13.6233 971.016 13.418C971.231 13.2033 971.404 12.928 971.534 12.592C971.674 12.256 971.744 11.8453 971.744 11.36V11.08C971.744 10.632 971.674 10.2493 971.534 9.932C971.404 9.61467 971.231 9.35333 971.016 9.148C970.802 8.94267 970.554 8.79333 970.274 8.7C969.994 8.60667 969.714 8.56 969.434 8.56C969.154 8.56 968.874 8.60667 968.594 8.7C968.314 8.79333 968.067 8.94267 967.852 9.148C967.638 9.35333 967.46 9.61467 967.32 9.932C967.19 10.2493 967.124 10.632 967.124 11.08V11.36C967.124 11.8453 967.19 12.256 967.32 12.592C967.46 12.928 967.638 13.2033 967.852 13.418C968.067 13.6233 968.314 13.7773 968.594 13.88C968.874 13.9733 969.154 14.02 969.434 14.02ZM977.619 15.14C977.143 15.14 976.7 15.0653 976.289 14.916C975.878 14.7573 975.524 14.524 975.225 14.216C974.926 13.8987 974.688 13.502 974.511 13.026C974.343 12.55 974.259 11.9947 974.259 11.36V11.08C974.259 10.4827 974.352 9.95533 974.539 9.498C974.726 9.04067 974.973 8.66267 975.281 8.364C975.589 8.056 975.944 7.82733 976.345 7.678C976.756 7.51933 977.18 7.44 977.619 7.44C978.058 7.44 978.45 7.50067 978.795 7.622C979.15 7.74333 979.453 7.91133 979.705 8.126C979.966 8.34067 980.176 8.59267 980.335 8.882C980.503 9.17133 980.624 9.484 980.699 9.82H979.439C979.364 9.64267 979.276 9.47933 979.173 9.33C979.08 9.17133 978.958 9.036 978.809 8.924C978.669 8.812 978.501 8.72333 978.305 8.658C978.109 8.59267 977.88 8.56 977.619 8.56C977.348 8.56 977.087 8.61133 976.835 8.714C976.583 8.80733 976.359 8.95667 976.163 9.162C975.967 9.358 975.808 9.61467 975.687 9.932C975.575 10.2493 975.519 10.632 975.519 11.08V11.36C975.519 11.836 975.575 12.2467 975.687 12.592C975.808 12.928 975.967 13.2033 976.163 13.418C976.359 13.6233 976.583 13.7773 976.835 13.88C977.087 13.9733 977.348 14.02 977.619 14.02C978.076 14.02 978.459 13.908 978.767 13.684C979.084 13.46 979.308 13.152 979.439 12.76H980.699C980.522 13.4973 980.158 14.0807 979.607 14.51C979.056 14.93 978.394 15.14 977.619 15.14ZM984.072 8.672H981.538V7.58H987.838V8.672H985.304V15H984.072V8.672ZM989.241 7.58H990.473V13.18L994.309 7.58H995.541V15H994.309V9.4L990.473 15H989.241V7.58Z" fill="#25136E"/>
<path d="M493.97 15.14C493.419 15.14 492.897 15.0467 492.402 14.86C491.907 14.664 491.469 14.3653 491.086 13.964C490.703 13.5533 490.4 13.0353 490.176 12.41C489.952 11.7847 489.84 11.038 489.84 10.17V9.89C489.84 9.05 489.952 8.32667 490.176 7.72C490.4 7.11333 490.703 6.614 491.086 6.222C491.469 5.83 491.907 5.54067 492.402 5.354C492.897 5.158 493.419 5.06 493.97 5.06C494.502 5.06 494.987 5.13 495.426 5.27C495.874 5.41 496.266 5.61067 496.602 5.872C496.938 6.13333 497.209 6.45533 497.414 6.838C497.629 7.22067 497.764 7.65467 497.82 8.14H496.42C496.289 7.50533 496.014 7.02933 495.594 6.712C495.174 6.39467 494.633 6.236 493.97 6.236C493.625 6.236 493.289 6.30133 492.962 6.432C492.635 6.56267 492.341 6.77267 492.08 7.062C491.828 7.342 491.623 7.71533 491.464 8.182C491.315 8.64867 491.24 9.218 491.24 9.89V10.17C491.24 10.8793 491.324 11.4767 491.492 11.962C491.66 12.438 491.875 12.8253 492.136 13.124C492.397 13.4227 492.691 13.6373 493.018 13.768C493.345 13.8987 493.662 13.964 493.97 13.964C494.698 13.964 495.267 13.7867 495.678 13.432C496.089 13.0773 496.336 12.62 496.42 12.06H497.82C497.745 12.6013 497.596 13.068 497.372 13.46C497.148 13.8427 496.863 14.16 496.518 14.412C496.182 14.664 495.795 14.8507 495.356 14.972C494.927 15.084 494.465 15.14 493.97 15.14ZM502.716 15.14C502.24 15.14 501.787 15.0653 501.358 14.916C500.928 14.7573 500.55 14.524 500.224 14.216C499.897 13.8987 499.636 13.502 499.44 13.026C499.244 12.55 499.146 11.9947 499.146 11.36V11.08C499.146 10.4827 499.244 9.95533 499.44 9.498C499.636 9.04067 499.897 8.66267 500.224 8.364C500.55 8.056 500.928 7.82733 501.358 7.678C501.787 7.51933 502.24 7.44 502.716 7.44C503.192 7.44 503.644 7.51933 504.074 7.678C504.503 7.82733 504.881 8.056 505.208 8.364C505.534 8.66267 505.796 9.04067 505.992 9.498C506.188 9.95533 506.286 10.4827 506.286 11.08V11.36C506.286 11.9947 506.188 12.55 505.992 13.026C505.796 13.502 505.534 13.8987 505.208 14.216C504.881 14.524 504.503 14.7573 504.074 14.916C503.644 15.0653 503.192 15.14 502.716 15.14ZM502.716 14.02C502.996 14.02 503.276 13.9733 503.556 13.88C503.836 13.7773 504.083 13.6233 504.298 13.418C504.512 13.2033 504.685 12.928 504.816 12.592C504.956 12.256 505.026 11.8453 505.026 11.36V11.08C505.026 10.632 504.956 10.2493 504.816 9.932C504.685 9.61467 504.512 9.35333 504.298 9.148C504.083 8.94267 503.836 8.79333 503.556 8.7C503.276 8.60667 502.996 8.56 502.716 8.56C502.436 8.56 502.156 8.60667 501.876 8.7C501.596 8.79333 501.348 8.94267 501.134 9.148C500.919 9.35333 500.742 9.61467 500.602 9.932C500.471 10.2493 500.406 10.632 500.406 11.08V11.36C500.406 11.8453 500.471 12.256 500.602 12.592C500.742 12.928 500.919 13.2033 501.134 13.418C501.348 13.6233 501.596 13.7773 501.876 13.88C502.156 13.9733 502.436 14.02 502.716 14.02ZM508.03 7.58H513.07V8.672H509.262V15H508.03V7.58ZM513.559 15.14C513.419 15.14 513.279 15.126 513.139 15.098V13.866C513.186 13.8753 513.256 13.88 513.349 13.88C513.554 13.88 513.732 13.8147 513.881 13.684C514.04 13.5533 514.166 13.3247 514.259 12.998C514.352 12.6713 514.422 12.228 514.469 11.668C514.516 11.108 514.539 10.3987 514.539 9.54V7.58H519.859V15H518.627V8.672H515.771V9.82C515.771 10.856 515.724 11.7147 515.631 12.396C515.538 13.0773 515.398 13.6233 515.211 14.034C515.034 14.4353 514.805 14.72 514.525 14.888C514.245 15.056 513.923 15.14 513.559 15.14ZM524.213 15.14C523.802 15.14 523.438 15.084 523.121 14.972C522.813 14.8507 522.551 14.6873 522.337 14.482C522.122 14.2767 521.959 14.034 521.847 13.754C521.735 13.474 521.679 13.166 521.679 12.83C521.679 12.0927 521.893 11.5607 522.323 11.234C522.761 10.9073 523.387 10.744 524.199 10.744H526.607V10.24C526.607 9.60533 526.462 9.16667 526.173 8.924C525.893 8.68133 525.468 8.56 524.899 8.56C524.367 8.56 523.979 8.66267 523.737 8.868C523.494 9.064 523.359 9.288 523.331 9.54H522.099C522.117 9.24133 522.197 8.966 522.337 8.714C522.486 8.45267 522.682 8.22867 522.925 8.042C523.177 7.85533 523.475 7.71067 523.821 7.608C524.166 7.496 524.549 7.44 524.969 7.44C525.846 7.44 526.541 7.65 527.055 8.07C527.577 8.48067 527.839 9.15733 527.839 10.1V13.11C527.839 13.502 527.839 13.8473 527.839 14.146C527.848 14.4353 527.871 14.72 527.909 15H526.831C526.803 14.7853 526.784 14.5847 526.775 14.398C526.765 14.202 526.761 13.9827 526.761 13.74C526.565 14.132 526.247 14.4633 525.809 14.734C525.37 15.0047 524.838 15.14 524.213 15.14ZM524.479 14.02C524.768 14.02 525.039 13.9827 525.291 13.908C525.552 13.824 525.781 13.7073 525.977 13.558C526.173 13.3993 526.327 13.208 526.439 12.984C526.551 12.76 526.607 12.4987 526.607 12.2V11.696H524.409C523.951 11.696 523.592 11.7893 523.331 11.976C523.069 12.1533 522.939 12.438 522.939 12.83C522.939 13.1753 523.06 13.46 523.303 13.684C523.555 13.908 523.947 14.02 524.479 14.02ZM532.885 15.14C532.409 15.14 531.965 15.0653 531.555 14.916C531.144 14.7573 530.789 14.524 530.491 14.216C530.192 13.8987 529.954 13.502 529.777 13.026C529.609 12.55 529.525 11.9947 529.525 11.36V11.08C529.525 10.4827 529.618 9.95533 529.805 9.498C529.991 9.04067 530.239 8.66267 530.547 8.364C530.855 8.056 531.209 7.82733 531.611 7.678C532.021 7.51933 532.446 7.44 532.885 7.44C533.323 7.44 533.715 7.50067 534.061 7.622C534.415 7.74333 534.719 7.91133 534.971 8.126C535.232 8.34067 535.442 8.59267 535.601 8.882C535.769 9.17133 535.89 9.484 535.965 9.82H534.705C534.63 9.64267 534.541 9.47933 534.439 9.33C534.345 9.17133 534.224 9.036 534.075 8.924C533.935 8.812 533.767 8.72333 533.571 8.658C533.375 8.59267 533.146 8.56 532.885 8.56C532.614 8.56 532.353 8.61133 532.101 8.714C531.849 8.80733 531.625 8.95667 531.429 9.162C531.233 9.358 531.074 9.61467 530.953 9.932C530.841 10.2493 530.785 10.632 530.785 11.08V11.36C530.785 11.836 530.841 12.2467 530.953 12.592C531.074 12.928 531.233 13.2033 531.429 13.418C531.625 13.6233 531.849 13.7773 532.101 13.88C532.353 13.9733 532.614 14.02 532.885 14.02C533.342 14.02 533.725 13.908 534.033 13.684C534.35 13.46 534.574 13.152 534.705 12.76H535.965C535.787 13.4973 535.423 14.0807 534.873 14.51C534.322 14.93 533.659 15.14 532.885 15.14ZM537.643 7.58H538.875V13.18L542.711 7.58H543.943V15H542.711V9.4L538.875 15H537.643V7.58ZM549.268 15.14C548.792 15.14 548.34 15.0653 547.91 14.916C547.481 14.7667 547.103 14.538 546.776 14.23C546.45 13.9127 546.188 13.516 545.992 13.04C545.796 12.564 545.698 12.004 545.698 11.36V11.08C545.698 10.464 545.792 9.932 545.978 9.484C546.165 9.02667 546.412 8.64867 546.72 8.35C547.038 8.042 547.402 7.81333 547.812 7.664C548.232 7.51467 548.671 7.44 549.128 7.44C550.22 7.44 551.065 7.73867 551.662 8.336C552.26 8.93333 552.558 9.778 552.558 10.87V11.654H546.93C546.93 12.0927 547 12.4613 547.14 12.76C547.28 13.0587 547.462 13.3013 547.686 13.488C547.91 13.6747 548.158 13.81 548.428 13.894C548.708 13.978 548.988 14.02 549.268 14.02C549.828 14.02 550.258 13.9267 550.556 13.74C550.864 13.5533 551.084 13.2967 551.214 12.97H552.418C552.344 13.3247 552.208 13.6373 552.012 13.908C551.826 14.1787 551.592 14.4073 551.312 14.594C551.042 14.7713 550.729 14.9067 550.374 15C550.029 15.0933 549.66 15.14 549.268 15.14ZM549.198 8.56C548.909 8.56 548.629 8.602 548.358 8.686C548.088 8.76067 547.845 8.88667 547.63 9.064C547.425 9.232 547.257 9.44667 547.126 9.708C546.996 9.96933 546.93 10.282 546.93 10.646H551.396C551.387 10.2633 551.322 9.94133 551.2 9.68C551.088 9.40933 550.934 9.19467 550.738 9.036C550.542 8.868 550.309 8.74667 550.038 8.672C549.777 8.59733 549.497 8.56 549.198 8.56ZM557.809 7.58H559.041V10.674H562.877V7.58H564.109V15H562.877V11.766H559.041V15H557.809V7.58ZM568.468 15.14C568.058 15.14 567.694 15.084 567.376 14.972C567.068 14.8507 566.807 14.6873 566.592 14.482C566.378 14.2767 566.214 14.034 566.102 13.754C565.99 13.474 565.934 13.166 565.934 12.83C565.934 12.0927 566.149 11.5607 566.578 11.234C567.017 10.9073 567.642 10.744 568.454 10.744H570.862V10.24C570.862 9.60533 570.718 9.16667 570.428 8.924C570.148 8.68133 569.724 8.56 569.154 8.56C568.622 8.56 568.235 8.66267 567.992 8.868C567.75 9.064 567.614 9.288 567.586 9.54H566.354C566.373 9.24133 566.452 8.966 566.592 8.714C566.742 8.45267 566.938 8.22867 567.18 8.042C567.432 7.85533 567.731 7.71067 568.076 7.608C568.422 7.496 568.804 7.44 569.224 7.44C570.102 7.44 570.797 7.65 571.31 8.07C571.833 8.48067 572.094 9.15733 572.094 10.1V13.11C572.094 13.502 572.094 13.8473 572.094 14.146C572.104 14.4353 572.127 14.72 572.164 15H571.086C571.058 14.7853 571.04 14.5847 571.03 14.398C571.021 14.202 571.016 13.9827 571.016 13.74C570.82 14.132 570.503 14.4633 570.064 14.734C569.626 15.0047 569.094 15.14 568.468 15.14ZM568.734 14.02C569.024 14.02 569.294 13.9827 569.546 13.908C569.808 13.824 570.036 13.7073 570.232 13.558C570.428 13.3993 570.582 13.208 570.694 12.984C570.806 12.76 570.862 12.4987 570.862 12.2V11.696H568.664C568.207 11.696 567.848 11.7893 567.586 11.976C567.325 12.1533 567.194 12.438 567.194 12.83C567.194 13.1753 567.316 13.46 567.558 13.684C567.81 13.908 568.202 14.02 568.734 14.02ZM580.64 15.14C580.164 15.14 579.721 15.0653 579.31 14.916C578.9 14.7573 578.545 14.524 578.246 14.216C577.948 13.8987 577.71 13.502 577.532 13.026C577.364 12.55 577.28 11.9947 577.28 11.36V11.08C577.28 10.4827 577.374 9.95533 577.56 9.498C577.747 9.04067 577.994 8.66267 578.302 8.364C578.61 8.056 578.965 7.82733 579.366 7.678C579.777 7.51933 580.202 7.44 580.64 7.44C581.079 7.44 581.471 7.50067 581.816 7.622C582.171 7.74333 582.474 7.91133 582.726 8.126C582.988 8.34067 583.198 8.59267 583.356 8.882C583.524 9.17133 583.646 9.484 583.72 9.82H582.46C582.386 9.64267 582.297 9.47933 582.194 9.33C582.101 9.17133 581.98 9.036 581.83 8.924C581.69 8.812 581.522 8.72333 581.326 8.658C581.13 8.59267 580.902 8.56 580.64 8.56C580.37 8.56 580.108 8.61133 579.856 8.714C579.604 8.80733 579.38 8.95667 579.184 9.162C578.988 9.358 578.83 9.61467 578.708 9.932C578.596 10.2493 578.54 10.632 578.54 11.08V11.36C578.54 11.836 578.596 12.2467 578.708 12.592C578.83 12.928 578.988 13.2033 579.184 13.418C579.38 13.6233 579.604 13.7773 579.856 13.88C580.108 13.9733 580.37 14.02 580.64 14.02C581.098 14.02 581.48 13.908 581.788 13.684C582.106 13.46 582.33 13.152 582.46 12.76H583.72C583.543 13.4973 583.179 14.0807 582.628 14.51C582.078 14.93 581.415 15.14 580.64 15.14ZM588.479 15.14C587.985 15.14 587.523 15.0467 587.093 14.86C586.673 14.6733 586.305 14.4027 585.987 14.048C585.679 13.684 585.432 13.2407 585.245 12.718C585.068 12.1953 584.979 11.6027 584.979 10.94V10.66C584.979 9.82 585.04 9.07333 585.161 8.42C585.283 7.75733 585.488 7.19733 585.777 6.74C586.076 6.27333 586.463 5.90933 586.939 5.648C587.425 5.38667 588.031 5.23733 588.759 5.2C589.347 5.172 589.861 5.14867 590.299 5.13C590.738 5.102 591.111 5.00867 591.419 4.85V6.04C591.27 6.124 590.995 6.18933 590.593 6.236C590.201 6.28267 589.66 6.31533 588.969 6.334C588.521 6.34333 588.125 6.39933 587.779 6.502C587.443 6.60467 587.154 6.768 586.911 6.992C586.678 7.216 586.491 7.51 586.351 7.874C586.221 8.22867 586.137 8.66733 586.099 9.19C586.323 8.69533 586.669 8.30333 587.135 8.014C587.602 7.72467 588.143 7.58 588.759 7.58C589.235 7.58 589.669 7.664 590.061 7.832C590.453 7.99067 590.789 8.21933 591.069 8.518C591.359 8.81667 591.583 9.18533 591.741 9.624C591.9 10.0533 591.979 10.5387 591.979 11.08V11.36C591.979 11.9387 591.891 12.4613 591.713 12.928C591.536 13.3853 591.293 13.782 590.985 14.118C590.677 14.4447 590.309 14.6967 589.879 14.874C589.45 15.0513 588.983 15.14 588.479 15.14ZM588.479 14.02C589.133 14.02 589.669 13.796 590.089 13.348C590.509 12.8907 590.719 12.228 590.719 11.36V11.08C590.719 10.716 590.663 10.3893 590.551 10.1C590.439 9.81067 590.285 9.56333 590.089 9.358C589.893 9.14333 589.655 8.98 589.375 8.868C589.105 8.756 588.806 8.7 588.479 8.7C588.153 8.7 587.849 8.756 587.569 8.868C587.299 8.98 587.065 9.14333 586.869 9.358C586.673 9.56333 586.519 9.81067 586.407 10.1C586.295 10.3893 586.239 10.716 586.239 11.08V11.36C586.239 11.7707 586.295 12.144 586.407 12.48C586.529 12.8067 586.692 13.0867 586.897 13.32C587.103 13.544 587.341 13.7167 587.611 13.838C587.882 13.9593 588.171 14.02 588.479 14.02ZM596.805 15.14C596.329 15.14 595.877 15.0653 595.447 14.916C595.018 14.7573 594.64 14.524 594.313 14.216C593.987 13.8987 593.725 13.502 593.529 13.026C593.333 12.55 593.235 11.9947 593.235 11.36V11.08C593.235 10.4827 593.333 9.95533 593.529 9.498C593.725 9.04067 593.987 8.66267 594.313 8.364C594.64 8.056 595.018 7.82733 595.447 7.678C595.877 7.51933 596.329 7.44 596.805 7.44C597.281 7.44 597.734 7.51933 598.163 7.678C598.593 7.82733 598.971 8.056 599.297 8.364C599.624 8.66267 599.885 9.04067 600.081 9.498C600.277 9.95533 600.375 10.4827 600.375 11.08V11.36C600.375 11.9947 600.277 12.55 600.081 13.026C599.885 13.502 599.624 13.8987 599.297 14.216C598.971 14.524 598.593 14.7573 598.163 14.916C597.734 15.0653 597.281 15.14 596.805 15.14ZM596.805 14.02C597.085 14.02 597.365 13.9733 597.645 13.88C597.925 13.7773 598.173 13.6233 598.387 13.418C598.602 13.2033 598.775 12.928 598.905 12.592C599.045 12.256 599.115 11.8453 599.115 11.36V11.08C599.115 10.632 599.045 10.2493 598.905 9.932C598.775 9.61467 598.602 9.35333 598.387 9.148C598.173 8.94267 597.925 8.79333 597.645 8.7C597.365 8.60667 597.085 8.56 596.805 8.56C596.525 8.56 596.245 8.60667 595.965 8.7C595.685 8.79333 595.438 8.94267 595.223 9.148C595.009 9.35333 594.831 9.61467 594.691 9.932C594.561 10.2493 594.495 10.632 594.495 11.08V11.36C594.495 11.8453 594.561 12.256 594.691 12.592C594.831 12.928 595.009 13.2033 595.223 13.418C595.438 13.6233 595.685 13.7773 595.965 13.88C596.245 13.9733 596.525 14.02 596.805 14.02ZM602.12 7.58H603.268V8.98C603.52 8.48533 603.87 8.10733 604.318 7.846C604.775 7.57533 605.303 7.44 605.9 7.44C606.833 7.44 607.58 7.748 608.14 8.364C608.7 8.97067 608.98 9.876 608.98 11.08V11.36C608.98 11.9947 608.905 12.55 608.756 13.026C608.607 13.4927 608.397 13.8847 608.126 14.202C607.855 14.51 607.529 14.7433 607.146 14.902C606.773 15.0607 606.357 15.14 605.9 15.14C605.265 15.14 604.733 15 604.304 14.72C603.884 14.44 603.567 14.09 603.352 13.67V17.8H602.12V7.58ZM605.62 14.048C605.919 14.048 606.199 13.992 606.46 13.88C606.721 13.7587 606.945 13.586 607.132 13.362C607.328 13.138 607.477 12.858 607.58 12.522C607.692 12.186 607.748 11.7987 607.748 11.36V11.08C607.748 10.6787 607.692 10.3193 607.58 10.002C607.477 9.68467 607.328 9.41867 607.132 9.204C606.945 8.98 606.721 8.812 606.46 8.7C606.199 8.588 605.919 8.532 605.62 8.532C605.284 8.532 604.976 8.588 604.696 8.7C604.416 8.80267 604.178 8.952 603.982 9.148C603.786 9.33467 603.632 9.55867 603.52 9.82C603.408 10.0813 603.352 10.3613 603.352 10.66V11.78C603.352 12.116 603.408 12.424 603.52 12.704C603.632 12.984 603.786 13.222 603.982 13.418C604.178 13.614 604.416 13.768 604.696 13.88C604.976 13.992 605.284 14.048 605.62 14.048ZM614.233 7.58H615.465V13.18L619.301 7.58H620.533V15H619.301V9.4L615.465 15H614.233V7.58ZM629.358 15.14C628.882 15.14 628.43 15.0653 628 14.916C627.571 14.7573 627.193 14.524 626.866 14.216C626.54 13.8987 626.278 13.502 626.082 13.026C625.886 12.55 625.788 11.9947 625.788 11.36V11.08C625.788 10.4827 625.886 9.95533 626.082 9.498C626.278 9.04067 626.54 8.66267 626.866 8.364C627.193 8.056 627.571 7.82733 628 7.678C628.43 7.51933 628.882 7.44 629.358 7.44C629.834 7.44 630.287 7.51933 630.716 7.678C631.146 7.82733 631.524 8.056 631.85 8.364C632.177 8.66267 632.438 9.04067 632.634 9.498C632.83 9.95533 632.928 10.4827 632.928 11.08V11.36C632.928 11.9947 632.83 12.55 632.634 13.026C632.438 13.502 632.177 13.8987 631.85 14.216C631.524 14.524 631.146 14.7573 630.716 14.916C630.287 15.0653 629.834 15.14 629.358 15.14ZM629.358 14.02C629.638 14.02 629.918 13.9733 630.198 13.88C630.478 13.7773 630.726 13.6233 630.94 13.418C631.155 13.2033 631.328 12.928 631.458 12.592C631.598 12.256 631.668 11.8453 631.668 11.36V11.08C631.668 10.632 631.598 10.2493 631.458 9.932C631.328 9.61467 631.155 9.35333 630.94 9.148C630.726 8.94267 630.478 8.79333 630.198 8.7C629.918 8.60667 629.638 8.56 629.358 8.56C629.078 8.56 628.798 8.60667 628.518 8.7C628.238 8.79333 627.991 8.94267 627.776 9.148C627.562 9.35333 627.384 9.61467 627.244 9.932C627.114 10.2493 627.048 10.632 627.048 11.08V11.36C627.048 11.8453 627.114 12.256 627.244 12.592C627.384 12.928 627.562 13.2033 627.776 13.418C627.991 13.6233 628.238 13.7773 628.518 13.88C628.798 13.9733 629.078 14.02 629.358 14.02ZM637.753 15.14C637.258 15.14 636.796 15.0467 636.367 14.86C635.947 14.6733 635.578 14.4027 635.261 14.048C634.953 13.684 634.705 13.2407 634.519 12.718C634.341 12.1953 634.253 11.6027 634.253 10.94V10.66C634.253 9.82 634.313 9.07333 634.435 8.42C634.556 7.75733 634.761 7.19733 635.051 6.74C635.349 6.27333 635.737 5.90933 636.213 5.648C636.698 5.38667 637.305 5.23733 638.033 5.2C638.621 5.172 639.134 5.14867 639.573 5.13C640.011 5.102 640.385 5.00867 640.693 4.85V6.04C640.543 6.124 640.268 6.18933 639.867 6.236C639.475 6.28267 638.933 6.31533 638.243 6.334C637.795 6.34333 637.398 6.39933 637.053 6.502C636.717 6.60467 636.427 6.768 636.185 6.992C635.951 7.216 635.765 7.51 635.625 7.874C635.494 8.22867 635.41 8.66733 635.373 9.19C635.597 8.69533 635.942 8.30333 636.409 8.014C636.875 7.72467 637.417 7.58 638.033 7.58C638.509 7.58 638.943 7.664 639.335 7.832C639.727 7.99067 640.063 8.21933 640.343 8.518C640.632 8.81667 640.856 9.18533 641.015 9.624C641.173 10.0533 641.253 10.5387 641.253 11.08V11.36C641.253 11.9387 641.164 12.4613 640.987 12.928C640.809 13.3853 640.567 13.782 640.259 14.118C639.951 14.4447 639.582 14.6967 639.153 14.874C638.723 15.0513 638.257 15.14 637.753 15.14ZM637.753 14.02C638.406 14.02 638.943 13.796 639.363 13.348C639.783 12.8907 639.993 12.228 639.993 11.36V11.08C639.993 10.716 639.937 10.3893 639.825 10.1C639.713 9.81067 639.559 9.56333 639.363 9.358C639.167 9.14333 638.929 8.98 638.649 8.868C638.378 8.756 638.079 8.7 637.753 8.7C637.426 8.7 637.123 8.756 636.843 8.868C636.572 8.98 636.339 9.14333 636.143 9.358C635.947 9.56333 635.793 9.81067 635.681 10.1C635.569 10.3893 635.513 10.716 635.513 11.08V11.36C635.513 11.7707 635.569 12.144 635.681 12.48C635.802 12.8067 635.965 13.0867 636.171 13.32C636.376 13.544 636.614 13.7167 636.885 13.838C637.155 13.9593 637.445 14.02 637.753 14.02ZM642.999 7.58H644.147V8.98C644.399 8.48533 644.749 8.10733 645.197 7.846C645.654 7.57533 646.182 7.44 646.779 7.44C647.712 7.44 648.459 7.748 649.019 8.364C649.579 8.97067 649.859 9.876 649.859 11.08V11.36C649.859 11.9947 649.784 12.55 649.635 13.026C649.486 13.4927 649.276 13.8847 649.005 14.202C648.734 14.51 648.408 14.7433 648.025 14.902C647.652 15.0607 647.236 15.14 646.779 15.14C646.144 15.14 645.612 15 645.183 14.72C644.763 14.44 644.446 14.09 644.231 13.67V17.8H642.999V7.58ZM646.499 14.048C646.798 14.048 647.078 13.992 647.339 13.88C647.6 13.7587 647.824 13.586 648.011 13.362C648.207 13.138 648.356 12.858 648.459 12.522C648.571 12.186 648.627 11.7987 648.627 11.36V11.08C648.627 10.6787 648.571 10.3193 648.459 10.002C648.356 9.68467 648.207 9.41867 648.011 9.204C647.824 8.98 647.6 8.812 647.339 8.7C647.078 8.588 646.798 8.532 646.499 8.532C646.163 8.532 645.855 8.588 645.575 8.7C645.295 8.80267 645.057 8.952 644.861 9.148C644.665 9.33467 644.511 9.55867 644.399 9.82C644.287 10.0813 644.231 10.3613 644.231 10.66V11.78C644.231 12.116 644.287 12.424 644.399 12.704C644.511 12.984 644.665 13.222 644.861 13.418C645.057 13.614 645.295 13.768 645.575 13.88C645.855 13.992 646.163 14.048 646.499 14.048ZM653.726 15.14C653.316 15.14 652.952 15.084 652.634 14.972C652.326 14.8507 652.065 14.6873 651.85 14.482C651.636 14.2767 651.472 14.034 651.36 13.754C651.248 13.474 651.192 13.166 651.192 12.83C651.192 12.0927 651.407 11.5607 651.836 11.234C652.275 10.9073 652.9 10.744 653.712 10.744H656.12V10.24C656.12 9.60533 655.976 9.16667 655.686 8.924C655.406 8.68133 654.982 8.56 654.412 8.56C653.88 8.56 653.493 8.66267 653.25 8.868C653.008 9.064 652.872 9.288 652.844 9.54H651.612C651.631 9.24133 651.71 8.966 651.85 8.714C652 8.45267 652.196 8.22867 652.438 8.042C652.69 7.85533 652.989 7.71067 653.334 7.608C653.68 7.496 654.062 7.44 654.482 7.44C655.36 7.44 656.055 7.65 656.568 8.07C657.091 8.48067 657.352 9.15733 657.352 10.1V13.11C657.352 13.502 657.352 13.8473 657.352 14.146C657.362 14.4353 657.385 14.72 657.422 15H656.344C656.316 14.7853 656.298 14.5847 656.288 14.398C656.279 14.202 656.274 13.9827 656.274 13.74C656.078 14.132 655.761 14.4633 655.322 14.734C654.884 15.0047 654.352 15.14 653.726 15.14ZM653.992 14.02C654.282 14.02 654.552 13.9827 654.804 13.908C655.066 13.824 655.294 13.7073 655.49 13.558C655.686 13.3993 655.84 13.208 655.952 12.984C656.064 12.76 656.12 12.4987 656.12 12.2V11.696H653.922C653.465 11.696 653.106 11.7893 652.844 11.976C652.583 12.1533 652.452 12.438 652.452 12.83C652.452 13.1753 652.574 13.46 652.816 13.684C653.068 13.908 653.46 14.02 653.992 14.02ZM662.608 15.14C662.114 15.14 661.652 15.0467 661.222 14.86C660.802 14.6733 660.434 14.4027 660.116 14.048C659.808 13.684 659.561 13.2407 659.374 12.718C659.197 12.1953 659.108 11.6027 659.108 10.94V10.66C659.108 9.82 659.169 9.07333 659.29 8.42C659.412 7.75733 659.617 7.19733 659.906 6.74C660.205 6.27333 660.592 5.90933 661.068 5.648C661.554 5.38667 662.16 5.23733 662.888 5.2C663.476 5.172 663.99 5.14867 664.428 5.13C664.867 5.102 665.24 5.00867 665.548 4.85V6.04C665.399 6.124 665.124 6.18933 664.722 6.236C664.33 6.28267 663.789 6.31533 663.098 6.334C662.65 6.34333 662.254 6.39933 661.908 6.502C661.572 6.60467 661.283 6.768 661.04 6.992C660.807 7.216 660.62 7.51 660.48 7.874C660.35 8.22867 660.266 8.66733 660.228 9.19C660.452 8.69533 660.798 8.30333 661.264 8.014C661.731 7.72467 662.272 7.58 662.888 7.58C663.364 7.58 663.798 7.664 664.19 7.832C664.582 7.99067 664.918 8.21933 665.198 8.518C665.488 8.81667 665.712 9.18533 665.87 9.624C666.029 10.0533 666.108 10.5387 666.108 11.08V11.36C666.108 11.9387 666.02 12.4613 665.842 12.928C665.665 13.3853 665.422 13.782 665.114 14.118C664.806 14.4447 664.438 14.6967 664.008 14.874C663.579 15.0513 663.112 15.14 662.608 15.14ZM662.608 14.02C663.262 14.02 663.798 13.796 664.218 13.348C664.638 12.8907 664.848 12.228 664.848 11.36V11.08C664.848 10.716 664.792 10.3893 664.68 10.1C664.568 9.81067 664.414 9.56333 664.218 9.358C664.022 9.14333 663.784 8.98 663.504 8.868C663.234 8.756 662.935 8.7 662.608 8.7C662.282 8.7 661.978 8.756 661.698 8.868C661.428 8.98 661.194 9.14333 660.998 9.358C660.802 9.56333 660.648 9.81067 660.536 10.1C660.424 10.3893 660.368 10.716 660.368 11.08V11.36C660.368 11.7707 660.424 12.144 660.536 12.48C660.658 12.8067 660.821 13.0867 661.026 13.32C661.232 13.544 661.47 13.7167 661.74 13.838C662.011 13.9593 662.3 14.02 662.608 14.02ZM670.934 15.14C670.458 15.14 670.006 15.0653 669.576 14.916C669.147 14.7573 668.769 14.524 668.442 14.216C668.116 13.8987 667.854 13.502 667.658 13.026C667.462 12.55 667.364 11.9947 667.364 11.36V11.08C667.364 10.4827 667.462 9.95533 667.658 9.498C667.854 9.04067 668.116 8.66267 668.442 8.364C668.769 8.056 669.147 7.82733 669.576 7.678C670.006 7.51933 670.458 7.44 670.934 7.44C671.41 7.44 671.863 7.51933 672.292 7.678C672.722 7.82733 673.1 8.056 673.426 8.364C673.753 8.66267 674.014 9.04067 674.21 9.498C674.406 9.95533 674.504 10.4827 674.504 11.08V11.36C674.504 11.9947 674.406 12.55 674.21 13.026C674.014 13.502 673.753 13.8987 673.426 14.216C673.1 14.524 672.722 14.7573 672.292 14.916C671.863 15.0653 671.41 15.14 670.934 15.14ZM670.934 14.02C671.214 14.02 671.494 13.9733 671.774 13.88C672.054 13.7773 672.302 13.6233 672.516 13.418C672.731 13.2033 672.904 12.928 673.034 12.592C673.174 12.256 673.244 11.8453 673.244 11.36V11.08C673.244 10.632 673.174 10.2493 673.034 9.932C672.904 9.61467 672.731 9.35333 672.516 9.148C672.302 8.94267 672.054 8.79333 671.774 8.7C671.494 8.60667 671.214 8.56 670.934 8.56C670.654 8.56 670.374 8.60667 670.094 8.7C669.814 8.79333 669.567 8.94267 669.352 9.148C669.138 9.35333 668.96 9.61467 668.82 9.932C668.69 10.2493 668.624 10.632 668.624 11.08V11.36C668.624 11.8453 668.69 12.256 668.82 12.592C668.96 12.928 669.138 13.2033 669.352 13.418C669.567 13.6233 669.814 13.7773 670.094 13.88C670.374 13.9733 670.654 14.02 670.934 14.02ZM677.806 8.672H675.272V7.58H681.572V8.672H679.038V15H677.806V8.672ZM682.975 7.58H684.207V10.688H685.187L687.959 7.58H689.415L686.195 11.136L689.555 15H687.987L685.187 11.752H684.207V15H682.975V7.58ZM692.145 17.94C692.005 17.94 691.865 17.926 691.725 17.898V16.778C691.865 16.806 692.005 16.82 692.145 16.82C692.285 16.82 692.406 16.7967 692.509 16.75C692.612 16.7033 692.71 16.6147 692.803 16.484C692.896 16.3533 692.994 16.1667 693.097 15.924C693.209 15.6907 693.335 15.3827 693.475 15L690.325 7.58H691.697L694.105 13.6L696.289 7.58H697.605L694.805 15C694.609 15.5227 694.422 15.9707 694.245 16.344C694.068 16.7173 693.876 17.0207 693.671 17.254C693.475 17.4967 693.256 17.6693 693.013 17.772C692.77 17.884 692.481 17.94 692.145 17.94ZM701.659 13.908H702.569C702.672 13.768 702.765 13.5533 702.849 13.264C702.933 12.9747 703.008 12.634 703.073 12.242C703.138 11.85 703.185 11.4253 703.213 10.968C703.25 10.5013 703.269 10.0253 703.269 9.54V7.58H708.449V13.908H709.499V16.75H708.323V15H702.835V16.75H701.659V13.908ZM707.217 13.908V8.672H704.473V9.82C704.473 10.212 704.459 10.604 704.431 10.996C704.403 11.3787 704.361 11.7473 704.305 12.102C704.249 12.4473 704.179 12.7787 704.095 13.096C704.02 13.404 703.932 13.6747 703.829 13.908H707.217ZM713.226 15.14C712.816 15.14 712.452 15.084 712.134 14.972C711.826 14.8507 711.565 14.6873 711.35 14.482C711.136 14.2767 710.972 14.034 710.86 13.754C710.748 13.474 710.692 13.166 710.692 12.83C710.692 12.0927 710.907 11.5607 711.336 11.234C711.775 10.9073 712.4 10.744 713.212 10.744H715.62V10.24C715.62 9.60533 715.476 9.16667 715.186 8.924C714.906 8.68133 714.482 8.56 713.912 8.56C713.38 8.56 712.993 8.66267 712.75 8.868C712.508 9.064 712.372 9.288 712.344 9.54H711.112C711.131 9.24133 711.21 8.966 711.35 8.714C711.5 8.45267 711.696 8.22867 711.938 8.042C712.19 7.85533 712.489 7.71067 712.834 7.608C713.18 7.496 713.562 7.44 713.982 7.44C714.86 7.44 715.555 7.65 716.068 8.07C716.591 8.48067 716.852 9.15733 716.852 10.1V13.11C716.852 13.502 716.852 13.8473 716.852 14.146C716.862 14.4353 716.885 14.72 716.922 15H715.844C715.816 14.7853 715.798 14.5847 715.788 14.398C715.779 14.202 715.774 13.9827 715.774 13.74C715.578 14.132 715.261 14.4633 714.822 14.734C714.384 15.0047 713.852 15.14 713.226 15.14ZM713.492 14.02C713.782 14.02 714.052 13.9827 714.304 13.908C714.566 13.824 714.794 13.7073 714.99 13.558C715.186 13.3993 715.34 13.208 715.452 12.984C715.564 12.76 715.62 12.4987 715.62 12.2V11.696H713.422C712.965 11.696 712.606 11.7893 712.344 11.976C712.083 12.1533 711.952 12.438 711.952 12.83C711.952 13.1753 712.074 13.46 712.316 13.684C712.568 13.908 712.96 14.02 713.492 14.02ZM719.028 7.58H720.26V10.674H724.096V7.58H725.328V15H724.096V11.766H720.26V15H719.028V7.58ZM727.573 7.58H728.805V10.674H732.641V7.58H733.873V15H732.641V11.766H728.805V15H727.573V7.58ZM736.118 7.58H737.35V10.38H738.848C739.781 10.38 740.467 10.5853 740.906 10.996C741.354 11.4067 741.578 11.976 741.578 12.704C741.578 13.4133 741.354 13.9733 740.906 14.384C740.467 14.7947 739.781 15 738.848 15H736.118V7.58ZM738.778 13.908C739.357 13.908 739.763 13.8053 739.996 13.6C740.229 13.3947 740.346 13.0913 740.346 12.69C740.346 12.2887 740.229 11.9853 739.996 11.78C739.763 11.5747 739.357 11.472 738.778 11.472H737.35V13.908H738.778ZM742.726 7.58H743.958V15H742.726V7.58ZM748.21 11.234L745.564 7.58H746.992L748.952 10.282L750.912 7.58H752.284L749.638 11.164L752.424 15H750.968L748.896 12.102L746.824 15H745.424L748.21 11.234Z" fill="#25136E"/>
<path d="M337.4 5.2H345.1V15H343.784V6.348H338.716V15H337.4V5.2ZM348.6 17.94C348.46 17.94 348.32 17.926 348.18 17.898V16.778C348.32 16.806 348.46 16.82 348.6 16.82C348.74 16.82 348.861 16.7967 348.964 16.75C349.067 16.7033 349.165 16.6147 349.258 16.484C349.351 16.3533 349.449 16.1667 349.552 15.924C349.664 15.6907 349.79 15.3827 349.93 15L346.78 7.58H348.152L350.56 13.6L352.744 7.58H354.06L351.26 15C351.064 15.5227 350.877 15.9707 350.7 16.344C350.523 16.7173 350.331 17.0207 350.126 17.254C349.93 17.4967 349.711 17.6693 349.468 17.772C349.225 17.884 348.936 17.94 348.6 17.94ZM358.534 15.14C358.039 15.14 357.577 15.0467 357.148 14.86C356.728 14.6733 356.359 14.4027 356.042 14.048C355.734 13.684 355.487 13.2407 355.3 12.718C355.123 12.1953 355.034 11.6027 355.034 10.94V10.66C355.034 9.82 355.095 9.07333 355.216 8.42C355.337 7.75733 355.543 7.19733 355.832 6.74C356.131 6.27333 356.518 5.90933 356.994 5.648C357.479 5.38667 358.086 5.23733 358.814 5.2C359.402 5.172 359.915 5.14867 360.354 5.13C360.793 5.102 361.166 5.00867 361.474 4.85V6.04C361.325 6.124 361.049 6.18933 360.648 6.236C360.256 6.28267 359.715 6.31533 359.024 6.334C358.576 6.34333 358.179 6.39933 357.834 6.502C357.498 6.60467 357.209 6.768 356.966 6.992C356.733 7.216 356.546 7.51 356.406 7.874C356.275 8.22867 356.191 8.66733 356.154 9.19C356.378 8.69533 356.723 8.30333 357.19 8.014C357.657 7.72467 358.198 7.58 358.814 7.58C359.29 7.58 359.724 7.664 360.116 7.832C360.508 7.99067 360.844 8.21933 361.124 8.518C361.413 8.81667 361.637 9.18533 361.796 9.624C361.955 10.0533 362.034 10.5387 362.034 11.08V11.36C362.034 11.9387 361.945 12.4613 361.768 12.928C361.591 13.3853 361.348 13.782 361.04 14.118C360.732 14.4447 360.363 14.6967 359.934 14.874C359.505 15.0513 359.038 15.14 358.534 15.14ZM358.534 14.02C359.187 14.02 359.724 13.796 360.144 13.348C360.564 12.8907 360.774 12.228 360.774 11.36V11.08C360.774 10.716 360.718 10.3893 360.606 10.1C360.494 9.81067 360.34 9.56333 360.144 9.358C359.948 9.14333 359.71 8.98 359.43 8.868C359.159 8.756 358.861 8.7 358.534 8.7C358.207 8.7 357.904 8.756 357.624 8.868C357.353 8.98 357.12 9.14333 356.924 9.358C356.728 9.56333 356.574 9.81067 356.462 10.1C356.35 10.3893 356.294 10.716 356.294 11.08V11.36C356.294 11.7707 356.35 12.144 356.462 12.48C356.583 12.8067 356.747 13.0867 356.952 13.32C357.157 13.544 357.395 13.7167 357.666 13.838C357.937 13.9593 358.226 14.02 358.534 14.02ZM363.293 15.14C363.153 15.14 363.013 15.126 362.873 15.098V13.866C362.92 13.8753 362.99 13.88 363.083 13.88C363.289 13.88 363.466 13.8147 363.615 13.684C363.774 13.5533 363.9 13.3247 363.993 12.998C364.087 12.6713 364.157 12.228 364.203 11.668C364.25 11.108 364.273 10.3987 364.273 9.54V7.58H369.593V15H368.361V8.672H365.505V9.82C365.505 10.856 365.459 11.7147 365.365 12.396C365.272 13.0773 365.132 13.6233 364.945 14.034C364.768 14.4353 364.539 14.72 364.259 14.888C363.979 15.056 363.657 15.14 363.293 15.14ZM371.833 7.58H373.065V13.18L376.901 7.58H378.133V15H376.901V9.4L373.065 15H371.833V7.58ZM384.676 12.046C384.461 12.1767 384.2 12.2933 383.892 12.396C383.593 12.4987 383.215 12.55 382.758 12.55C382.328 12.55 381.941 12.5033 381.596 12.41C381.26 12.3167 380.975 12.1673 380.742 11.962C380.508 11.7567 380.331 11.4907 380.21 11.164C380.088 10.8373 380.028 10.436 380.028 9.96V7.58H381.26V9.75C381.26 10.0673 381.288 10.3333 381.344 10.548C381.409 10.7627 381.512 10.9353 381.652 11.066C381.792 11.1967 381.969 11.29 382.184 11.346C382.398 11.402 382.66 11.43 382.968 11.43C383.388 11.43 383.747 11.388 384.046 11.304C384.344 11.22 384.554 11.1313 384.676 11.038V7.58H385.908V15H384.676V12.046ZM388.143 7.58H389.375V10.674H393.211V7.58H394.443V15H393.211V11.766H389.375V15H388.143V7.58ZM398.802 15.14C398.392 15.14 398.028 15.084 397.71 14.972C397.402 14.8507 397.141 14.6873 396.926 14.482C396.712 14.2767 396.548 14.034 396.436 13.754C396.324 13.474 396.268 13.166 396.268 12.83C396.268 12.0927 396.483 11.5607 396.912 11.234C397.351 10.9073 397.976 10.744 398.788 10.744H401.196V10.24C401.196 9.60533 401.052 9.16667 400.762 8.924C400.482 8.68133 400.058 8.56 399.488 8.56C398.956 8.56 398.569 8.66267 398.326 8.868C398.084 9.064 397.948 9.288 397.92 9.54H396.688C396.707 9.24133 396.786 8.966 396.926 8.714C397.076 8.45267 397.272 8.22867 397.514 8.042C397.766 7.85533 398.065 7.71067 398.41 7.608C398.756 7.496 399.138 7.44 399.558 7.44C400.436 7.44 401.131 7.65 401.644 8.07C402.167 8.48067 402.428 9.15733 402.428 10.1V13.11C402.428 13.502 402.428 13.8473 402.428 14.146C402.438 14.4353 402.461 14.72 402.498 15H401.42C401.392 14.7853 401.374 14.5847 401.364 14.398C401.355 14.202 401.35 13.9827 401.35 13.74C401.154 14.132 400.837 14.4633 400.398 14.734C399.96 15.0047 399.428 15.14 398.802 15.14ZM399.068 14.02C399.358 14.02 399.628 13.9827 399.88 13.908C400.142 13.824 400.37 13.7073 400.566 13.558C400.762 13.3993 400.916 13.208 401.028 12.984C401.14 12.76 401.196 12.4987 401.196 12.2V11.696H398.998C398.541 11.696 398.182 11.7893 397.92 11.976C397.659 12.1533 397.528 12.438 397.528 12.83C397.528 13.1753 397.65 13.46 397.892 13.684C398.144 13.908 398.536 14.02 399.068 14.02ZM406.06 12.06C405.444 11.92 405.001 11.668 404.73 11.304C404.46 10.9307 404.324 10.4547 404.324 9.876C404.324 9.148 404.544 8.58333 404.982 8.182C405.43 7.78067 406.144 7.58 407.124 7.58H410.344V15H409.112V12.172H407.222L405.416 15H404.044L406.06 12.06ZM405.556 9.876C405.556 10.268 405.668 10.5667 405.892 10.772C406.126 10.9773 406.513 11.08 407.054 11.08H409.112V8.672H407.054C406.513 8.672 406.126 8.77467 405.892 8.98C405.668 9.18533 405.556 9.484 405.556 9.876ZM419.169 15.14C418.693 15.14 418.24 15.0653 417.811 14.916C417.381 14.7573 417.003 14.524 416.677 14.216C416.35 13.8987 416.089 13.502 415.893 13.026C415.697 12.55 415.599 11.9947 415.599 11.36V11.08C415.599 10.4827 415.697 9.95533 415.893 9.498C416.089 9.04067 416.35 8.66267 416.677 8.364C417.003 8.056 417.381 7.82733 417.811 7.678C418.24 7.51933 418.693 7.44 419.169 7.44C419.645 7.44 420.097 7.51933 420.527 7.678C420.956 7.82733 421.334 8.056 421.661 8.364C421.987 8.66267 422.249 9.04067 422.445 9.498C422.641 9.95533 422.739 10.4827 422.739 11.08V11.36C422.739 11.9947 422.641 12.55 422.445 13.026C422.249 13.502 421.987 13.8987 421.661 14.216C421.334 14.524 420.956 14.7573 420.527 14.916C420.097 15.0653 419.645 15.14 419.169 15.14ZM419.169 14.02C419.449 14.02 419.729 13.9733 420.009 13.88C420.289 13.7773 420.536 13.6233 420.751 13.418C420.965 13.2033 421.138 12.928 421.269 12.592C421.409 12.256 421.479 11.8453 421.479 11.36V11.08C421.479 10.632 421.409 10.2493 421.269 9.932C421.138 9.61467 420.965 9.35333 420.751 9.148C420.536 8.94267 420.289 8.79333 420.009 8.7C419.729 8.60667 419.449 8.56 419.169 8.56C418.889 8.56 418.609 8.60667 418.329 8.7C418.049 8.79333 417.801 8.94267 417.587 9.148C417.372 9.35333 417.195 9.61467 417.055 9.932C416.924 10.2493 416.859 10.632 416.859 11.08V11.36C416.859 11.8453 416.924 12.256 417.055 12.592C417.195 12.928 417.372 13.2033 417.587 13.418C417.801 13.6233 418.049 13.7773 418.329 13.88C418.609 13.9733 418.889 14.02 419.169 14.02ZM427.927 15.14C426.639 15.14 425.659 14.8133 424.987 14.16C424.325 13.5067 423.993 12.578 423.993 11.374V11.094C423.993 9.946 424.325 9.05 424.987 8.406C425.659 7.762 426.639 7.44 427.927 7.44V5.2H429.159V7.44C430.447 7.44 431.423 7.762 432.085 8.406C432.757 9.05 433.093 9.946 433.093 11.094V11.374C433.093 12.578 432.757 13.5067 432.085 14.16C431.423 14.8133 430.447 15.14 429.159 15.14V17.8H427.927V15.14ZM431.833 11.094C431.833 10.2447 431.614 9.61 431.175 9.19C430.746 8.77 430.069 8.56 429.145 8.56V14.02C430.069 14.02 430.746 13.8053 431.175 13.376C431.614 12.9467 431.833 12.2793 431.833 11.374V11.094ZM425.253 11.374C425.253 12.2793 425.468 12.9467 425.897 13.376C426.336 13.8053 427.017 14.02 427.941 14.02V8.56C427.017 8.56 426.336 8.77 425.897 9.19C425.468 9.61 425.253 10.2447 425.253 11.094V11.374ZM437.927 15.14C437.451 15.14 436.998 15.0653 436.569 14.916C436.139 14.7667 435.761 14.538 435.435 14.23C435.108 13.9127 434.847 13.516 434.651 13.04C434.455 12.564 434.357 12.004 434.357 11.36V11.08C434.357 10.464 434.45 9.932 434.637 9.484C434.823 9.02667 435.071 8.64867 435.379 8.35C435.696 8.042 436.06 7.81333 436.471 7.664C436.891 7.51467 437.329 7.44 437.787 7.44C438.879 7.44 439.723 7.73867 440.321 8.336C440.918 8.93333 441.217 9.778 441.217 10.87V11.654H435.589C435.589 12.0927 435.659 12.4613 435.799 12.76C435.939 13.0587 436.121 13.3013 436.345 13.488C436.569 13.6747 436.816 13.81 437.087 13.894C437.367 13.978 437.647 14.02 437.927 14.02C438.487 14.02 438.916 13.9267 439.215 13.74C439.523 13.5533 439.742 13.2967 439.873 12.97H441.077C441.002 13.3247 440.867 13.6373 440.671 13.908C440.484 14.1787 440.251 14.4073 439.971 14.594C439.7 14.7713 439.387 14.9067 439.033 15C438.687 15.0933 438.319 15.14 437.927 15.14ZM437.857 8.56C437.567 8.56 437.287 8.602 437.017 8.686C436.746 8.76067 436.503 8.88667 436.289 9.064C436.083 9.232 435.915 9.44667 435.785 9.708C435.654 9.96933 435.589 10.282 435.589 10.646H440.055C440.045 10.2633 439.98 9.94133 439.859 9.68C439.747 9.40933 439.593 9.19467 439.397 9.036C439.201 8.868 438.967 8.74667 438.697 8.672C438.435 8.59733 438.155 8.56 437.857 8.56ZM442.968 7.58H444.116V8.98C444.368 8.48533 444.718 8.10733 445.166 7.846C445.623 7.57533 446.15 7.44 446.748 7.44C447.681 7.44 448.428 7.748 448.988 8.364C449.548 8.97067 449.828 9.876 449.828 11.08V11.36C449.828 11.9947 449.753 12.55 449.604 13.026C449.454 13.4927 449.244 13.8847 448.974 14.202C448.703 14.51 448.376 14.7433 447.994 14.902C447.62 15.0607 447.205 15.14 446.748 15.14C446.113 15.14 445.581 15 445.152 14.72C444.732 14.44 444.414 14.09 444.2 13.67V17.8H442.968V7.58ZM446.468 14.048C446.766 14.048 447.046 13.992 447.308 13.88C447.569 13.7587 447.793 13.586 447.98 13.362C448.176 13.138 448.325 12.858 448.428 12.522C448.54 12.186 448.596 11.7987 448.596 11.36V11.08C448.596 10.6787 448.54 10.3193 448.428 10.002C448.325 9.68467 448.176 9.41867 447.98 9.204C447.793 8.98 447.569 8.812 447.308 8.7C447.046 8.588 446.766 8.532 446.468 8.532C446.132 8.532 445.824 8.588 445.544 8.7C445.264 8.80267 445.026 8.952 444.83 9.148C444.634 9.33467 444.48 9.55867 444.368 9.82C444.256 10.0813 444.2 10.3613 444.2 10.66V11.78C444.2 12.116 444.256 12.424 444.368 12.704C444.48 12.984 444.634 13.222 444.83 13.418C445.026 13.614 445.264 13.768 445.544 13.88C445.824 13.992 446.132 14.048 446.468 14.048ZM453.138 8.672H450.604V7.58H456.904V8.672H454.37V15H453.138V8.672ZM460.148 15.14C459.737 15.14 459.373 15.084 459.056 14.972C458.748 14.8507 458.487 14.6873 458.272 14.482C458.057 14.2767 457.894 14.034 457.782 13.754C457.67 13.474 457.614 13.166 457.614 12.83C457.614 12.0927 457.829 11.5607 458.258 11.234C458.697 10.9073 459.322 10.744 460.134 10.744H462.542V10.24C462.542 9.60533 462.397 9.16667 462.108 8.924C461.828 8.68133 461.403 8.56 460.834 8.56C460.302 8.56 459.915 8.66267 459.672 8.868C459.429 9.064 459.294 9.288 459.266 9.54H458.034C458.053 9.24133 458.132 8.966 458.272 8.714C458.421 8.45267 458.617 8.22867 458.86 8.042C459.112 7.85533 459.411 7.71067 459.756 7.608C460.101 7.496 460.484 7.44 460.904 7.44C461.781 7.44 462.477 7.65 462.99 8.07C463.513 8.48067 463.774 9.15733 463.774 10.1V13.11C463.774 13.502 463.774 13.8473 463.774 14.146C463.783 14.4353 463.807 14.72 463.844 15H462.766C462.738 14.7853 462.719 14.5847 462.71 14.398C462.701 14.202 462.696 13.9827 462.696 13.74C462.5 14.132 462.183 14.4633 461.744 14.734C461.305 15.0047 460.773 15.14 460.148 15.14ZM460.414 14.02C460.703 14.02 460.974 13.9827 461.226 13.908C461.487 13.824 461.716 13.7073 461.912 13.558C462.108 13.3993 462.262 13.208 462.374 12.984C462.486 12.76 462.542 12.4987 462.542 12.2V11.696H460.344C459.887 11.696 459.527 11.7893 459.266 11.976C459.005 12.1533 458.874 12.438 458.874 12.83C458.874 13.1753 458.995 13.46 459.238 13.684C459.49 13.908 459.882 14.02 460.414 14.02Z" fill="#25136E"/>
<path d="M5.81 15.14C5.10067 15.14 4.438 15.0093 3.822 14.748C3.21533 14.4867 2.68333 14.132 2.226 13.684C1.778 13.2267 1.42333 12.6947 1.162 12.088C0.900667 11.472 0.77 10.8093 0.77 10.1C0.77 9.4 0.900667 8.74667 1.162 8.14C1.42333 7.524 1.78267 6.98733 2.24 6.53C2.69733 6.07267 3.22933 5.71333 3.836 5.452C4.452 5.19067 5.11 5.06 5.81 5.06C6.51933 5.06 7.17733 5.19067 7.784 5.452C8.4 5.71333 8.932 6.07267 9.38 6.53C9.83733 6.978 10.1967 7.51 10.458 8.126C10.7193 8.73267 10.85 9.39067 10.85 10.1C10.85 10.8 10.7193 11.458 10.458 12.074C10.1967 12.6807 9.83733 13.2127 9.38 13.67C8.92267 14.1273 8.386 14.4867 7.77 14.748C7.16333 15.0093 6.51 15.14 5.81 15.14ZM5.81 14.076C6.35133 14.076 6.86 13.978 7.336 13.782C7.82133 13.5767 8.23667 13.2967 8.582 12.942C8.93667 12.5873 9.21667 12.1673 9.422 11.682C9.62733 11.1967 9.73 10.6693 9.73 10.1C9.73 9.54 9.62733 9.01733 9.422 8.532C9.21667 8.04667 8.93667 7.62667 8.582 7.272C8.23667 6.908 7.82133 6.628 7.336 6.432C6.86 6.22667 6.35133 6.124 5.81 6.124C5.25933 6.124 4.746 6.22667 4.27 6.432C3.794 6.628 3.37867 6.908 3.024 7.272C2.67867 7.62667 2.40333 8.04667 2.198 8.532C1.99267 9.01733 1.89 9.54 1.89 10.1C1.89 10.66 1.988 11.1827 2.184 11.668C2.38933 12.1533 2.66933 12.578 3.024 12.942C3.37867 13.2967 3.794 13.5767 4.27 13.782C4.746 13.978 5.25933 14.076 5.81 14.076ZM5.81 13.04C5.43667 13.04 5.096 12.9793 4.788 12.858C4.48 12.7273 4.214 12.5407 3.99 12.298C3.766 12.046 3.59333 11.7427 3.472 11.388C3.35067 11.0333 3.29 10.6273 3.29 10.17V10.03C3.29 9.582 3.35067 9.18067 3.472 8.826C3.60267 8.462 3.78 8.15867 4.004 7.916C4.228 7.67333 4.494 7.48667 4.802 7.356C5.11 7.22533 5.446 7.16 5.81 7.16C6.51933 7.16 7.07467 7.33733 7.476 7.692C7.87733 8.04667 8.11533 8.476 8.19 8.98H7.07C6.99533 8.728 6.85533 8.52267 6.65 8.364C6.44467 8.196 6.16467 8.112 5.81 8.112C5.39 8.112 5.04933 8.26133 4.788 8.56C4.536 8.85867 4.41 9.34867 4.41 10.03V10.17C4.41 10.842 4.54067 11.332 4.802 11.64C5.06333 11.9387 5.39933 12.088 5.81 12.088C6.202 12.088 6.49133 12.004 6.678 11.836C6.86467 11.668 6.99533 11.4393 7.07 11.15H8.19C8.15267 11.402 8.07333 11.6447 7.952 11.878C7.83067 12.102 7.66733 12.3027 7.462 12.48C7.266 12.648 7.028 12.7833 6.748 12.886C6.468 12.9887 6.15533 13.04 5.81 13.04ZM15.6811 13.922L19.6011 10.52C19.8998 10.268 20.1424 10.0393 20.3291 9.834C20.5251 9.62867 20.6791 9.43733 20.7911 9.26C20.9031 9.07333 20.9778 8.89133 21.0151 8.714C21.0618 8.53667 21.0851 8.34533 21.0851 8.14C21.0851 7.58933 20.9218 7.13667 20.5951 6.782C20.2684 6.418 19.8204 6.236 19.2511 6.236C18.5698 6.236 18.0471 6.42267 17.6831 6.796C17.3191 7.16 17.1371 7.678 17.1371 8.35H15.8211C15.8211 7.874 15.9004 7.43533 16.0591 7.034C16.2271 6.62333 16.4604 6.27333 16.7591 5.984C17.0671 5.69467 17.4311 5.47067 17.8511 5.312C18.2711 5.144 18.7378 5.06 19.2511 5.06C19.7458 5.06 20.1891 5.13933 20.5811 5.298C20.9731 5.44733 21.3044 5.662 21.5751 5.942C21.8458 6.21267 22.0511 6.53467 22.1911 6.908C22.3311 7.28133 22.4011 7.692 22.4011 8.14C22.4011 8.476 22.3498 8.78867 22.2471 9.078C22.1444 9.36733 21.9998 9.64267 21.8131 9.904C21.6358 10.1653 21.4164 10.422 21.1551 10.674C20.9031 10.9167 20.6231 11.1687 20.3151 11.43L17.3891 13.852H22.5411V15H15.6811V13.922ZM27.5822 15.14C27.1062 15.14 26.6535 15.0607 26.2242 14.902C25.8042 14.7433 25.4355 14.4727 25.1182 14.09C24.8009 13.698 24.5489 13.18 24.3622 12.536C24.1755 11.8827 24.0822 11.0707 24.0822 10.1V9.82C24.0822 8.91467 24.1755 8.15867 24.3622 7.552C24.5489 6.94533 24.8009 6.46 25.1182 6.096C25.4355 5.72267 25.8042 5.45667 26.2242 5.298C26.6535 5.13933 27.1062 5.06 27.5822 5.06C28.0582 5.06 28.5062 5.13933 28.9262 5.298C29.3555 5.45667 29.7289 5.72267 30.0462 6.096C30.3635 6.46 30.6155 6.94533 30.8022 7.552C30.9889 8.15867 31.0822 8.91467 31.0822 9.82V10.1C31.0822 11.0707 30.9889 11.8827 30.8022 12.536C30.6155 13.18 30.3635 13.698 30.0462 14.09C29.7289 14.4727 29.3555 14.7433 28.9262 14.902C28.5062 15.0607 28.0582 15.14 27.5822 15.14ZM27.5822 13.992C27.8715 13.992 28.1469 13.9407 28.4082 13.838C28.6789 13.726 28.9122 13.53 29.1082 13.25C29.3135 12.9607 29.4722 12.564 29.5842 12.06C29.7055 11.556 29.7662 10.9027 29.7662 10.1V9.82C29.7662 9.092 29.7055 8.49467 29.5842 8.028C29.4722 7.56133 29.3135 7.19267 29.1082 6.922C28.9122 6.65133 28.6789 6.46467 28.4082 6.362C28.1469 6.25933 27.8715 6.208 27.5822 6.208C27.2835 6.208 27.0035 6.25933 26.7422 6.362C26.4809 6.46467 26.2475 6.65133 26.0422 6.922C25.8462 7.19267 25.6875 7.56133 25.5662 8.028C25.4542 8.49467 25.3982 9.092 25.3982 9.82V10.1C25.3982 10.9027 25.4542 11.556 25.5662 12.06C25.6875 12.564 25.8462 12.9607 26.0422 13.25C26.2475 13.53 26.4809 13.726 26.7422 13.838C27.0035 13.9407 27.2835 13.992 27.5822 13.992ZM32.4838 13.922L36.4038 10.52C36.7025 10.268 36.9452 10.0393 37.1318 9.834C37.3278 9.62867 37.4818 9.43733 37.5938 9.26C37.7058 9.07333 37.7805 8.89133 37.8178 8.714C37.8645 8.53667 37.8878 8.34533 37.8878 8.14C37.8878 7.58933 37.7245 7.13667 37.3978 6.782C37.0712 6.418 36.6232 6.236 36.0538 6.236C35.3725 6.236 34.8498 6.42267 34.4858 6.796C34.1218 7.16 33.9398 7.678 33.9398 8.35H32.6238C32.6238 7.874 32.7032 7.43533 32.8618 7.034C33.0298 6.62333 33.2632 6.27333 33.5618 5.984C33.8698 5.69467 34.2338 5.47067 34.6538 5.312C35.0738 5.144 35.5405 5.06 36.0538 5.06C36.5485 5.06 36.9918 5.13933 37.3838 5.298C37.7758 5.44733 38.1072 5.662 38.3778 5.942C38.6485 6.21267 38.8538 6.53467 38.9938 6.908C39.1338 7.28133 39.2038 7.692 39.2038 8.14C39.2038 8.476 39.1525 8.78867 39.0498 9.078C38.9472 9.36733 38.8025 9.64267 38.6158 9.904C38.4385 10.1653 38.2192 10.422 37.9578 10.674C37.7058 10.9167 37.4258 11.1687 37.1178 11.43L34.1918 13.852H39.3438V15H32.4838V13.922ZM44.0349 15.14C43.5029 15.14 43.0269 15.07 42.6069 14.93C42.1963 14.7807 41.8463 14.58 41.5569 14.328C41.2676 14.076 41.0483 13.782 40.8989 13.446C40.7496 13.1007 40.6749 12.732 40.6749 12.34H41.9909C41.9909 12.816 42.1543 13.208 42.4809 13.516C42.8076 13.8147 43.3256 13.964 44.0349 13.964C44.7443 13.964 45.2623 13.81 45.5889 13.502C45.9156 13.1847 46.0789 12.774 46.0789 12.27C46.0789 11.7473 45.9109 11.3273 45.5749 11.01C45.2483 10.6833 44.7349 10.52 44.0349 10.52H42.9849V9.4H44.0349C44.7069 9.4 45.1923 9.26 45.4909 8.98C45.7896 8.69067 45.9389 8.294 45.9389 7.79C45.9389 7.30467 45.7943 6.92667 45.5049 6.656C45.2156 6.376 44.7256 6.236 44.0349 6.236C43.3723 6.236 42.8869 6.38067 42.5789 6.67C42.2803 6.95 42.1309 7.3 42.1309 7.72H40.8149C40.8149 7.356 40.8849 7.01067 41.0249 6.684C41.1743 6.35733 41.3843 6.07733 41.6549 5.844C41.9349 5.60133 42.2709 5.41 42.6629 5.27C43.0643 5.13 43.5216 5.06 44.0349 5.06C44.5483 5.06 45.0056 5.13 45.4069 5.27C45.8083 5.41 46.1443 5.59667 46.4149 5.83C46.6949 6.06333 46.9049 6.33867 47.0449 6.656C47.1849 6.97333 47.2549 7.30467 47.2549 7.65C47.2549 8.21 47.1056 8.686 46.8069 9.078C46.5176 9.46067 46.1069 9.73133 45.5749 9.89C46.1349 10.0673 46.5783 10.3567 46.9049 10.758C47.2316 11.1593 47.3949 11.71 47.3949 12.41C47.3949 12.7833 47.3203 13.138 47.1709 13.474C47.0216 13.8007 46.8023 14.09 46.5129 14.342C46.2329 14.5847 45.8829 14.7807 45.4629 14.93C45.0429 15.07 44.5669 15.14 44.0349 15.14ZM56.7044 15.14C56.1537 15.14 55.631 15.0467 55.1364 14.86C54.6417 14.664 54.203 14.3653 53.8204 13.964C53.4377 13.5533 53.1344 13.0353 52.9104 12.41C52.6864 11.7847 52.5744 11.038 52.5744 10.17V9.89C52.5744 9.05 52.6864 8.32667 52.9104 7.72C53.1344 7.11333 53.4377 6.614 53.8204 6.222C54.203 5.83 54.6417 5.54067 55.1364 5.354C55.631 5.158 56.1537 5.06 56.7044 5.06C57.2364 5.06 57.7217 5.13 58.1604 5.27C58.6084 5.41 59.0004 5.61067 59.3364 5.872C59.6724 6.13333 59.943 6.45533 60.1484 6.838C60.363 7.22067 60.4984 7.65467 60.5544 8.14H59.1544C59.0237 7.50533 58.7484 7.02933 58.3284 6.712C57.9084 6.39467 57.367 6.236 56.7044 6.236C56.359 6.236 56.023 6.30133 55.6964 6.432C55.3697 6.56267 55.0757 6.77267 54.8144 7.062C54.5624 7.342 54.357 7.71533 54.1984 8.182C54.049 8.64867 53.9744 9.218 53.9744 9.89V10.17C53.9744 10.8793 54.0584 11.4767 54.2264 11.962C54.3944 12.438 54.609 12.8253 54.8704 13.124C55.1317 13.4227 55.4257 13.6373 55.7524 13.768C56.079 13.8987 56.3964 13.964 56.7044 13.964C57.4324 13.964 58.0017 13.7867 58.4124 13.432C58.823 13.0773 59.0704 12.62 59.1544 12.06H60.5544C60.4797 12.6013 60.3304 13.068 60.1064 13.46C59.8824 13.8427 59.5977 14.16 59.2524 14.412C58.9164 14.664 58.529 14.8507 58.0904 14.972C57.661 15.084 57.199 15.14 56.7044 15.14ZM65.45 15.14C64.974 15.14 64.5213 15.0653 64.092 14.916C63.6627 14.7667 63.2847 14.538 62.958 14.23C62.6313 13.9127 62.37 13.516 62.174 13.04C61.978 12.564 61.88 12.004 61.88 11.36V11.08C61.88 10.464 61.9733 9.932 62.16 9.484C62.3467 9.02667 62.594 8.64867 62.902 8.35C63.2193 8.042 63.5833 7.81333 63.994 7.664C64.414 7.51467 64.8527 7.44 65.31 7.44C66.402 7.44 67.2467 7.73867 67.844 8.336C68.4413 8.93333 68.74 9.778 68.74 10.87V11.654H63.112C63.112 12.0927 63.182 12.4613 63.322 12.76C63.462 13.0587 63.644 13.3013 63.868 13.488C64.092 13.6747 64.3393 13.81 64.61 13.894C64.89 13.978 65.17 14.02 65.45 14.02C66.01 14.02 66.4393 13.9267 66.738 13.74C67.046 13.5533 67.2653 13.2967 67.396 12.97H68.6C68.5253 13.3247 68.39 13.6373 68.194 13.908C68.0073 14.1787 67.774 14.4073 67.494 14.594C67.2233 14.7713 66.9107 14.9067 66.556 15C66.2107 15.0933 65.842 15.14 65.45 15.14ZM65.38 8.56C65.0907 8.56 64.8107 8.602 64.54 8.686C64.2693 8.76067 64.0267 8.88667 63.812 9.064C63.6067 9.232 63.4387 9.44667 63.308 9.708C63.1773 9.96933 63.112 10.282 63.112 10.646H67.578C67.5687 10.2633 67.5033 9.94133 67.382 9.68C67.27 9.40933 67.116 9.19467 66.92 9.036C66.724 8.868 66.4907 8.74667 66.22 8.672C65.9587 8.59733 65.6787 8.56 65.38 8.56ZM72.0484 8.672H69.5144V7.58H75.8144V8.672H73.2804V15H72.0484V8.672ZM77.2177 7.58H78.4497V10.38H80.2277C81.161 10.38 81.847 10.5853 82.2857 10.996C82.7337 11.4067 82.9577 11.976 82.9577 12.704C82.9577 13.4133 82.7337 13.9733 82.2857 14.384C81.847 14.7947 81.161 15 80.2277 15H77.2177V7.58ZM80.1577 13.908C80.7363 13.908 81.1423 13.8053 81.3757 13.6C81.609 13.3947 81.7257 13.0913 81.7257 12.69C81.7257 12.2887 81.609 11.9853 81.3757 11.78C81.1423 11.5747 80.7363 11.472 80.1577 11.472H78.4497V13.908H80.1577ZM90.9431 15.14C90.4671 15.14 90.0238 15.0653 89.6131 14.916C89.2025 14.7573 88.8478 14.524 88.5491 14.216C88.2505 13.8987 88.0125 13.502 87.8351 13.026C87.6671 12.55 87.5831 11.9947 87.5831 11.36V11.08C87.5831 10.4827 87.6765 9.95533 87.8631 9.498C88.0498 9.04067 88.2971 8.66267 88.6051 8.364C88.9131 8.056 89.2678 7.82733 89.6691 7.678C90.0798 7.51933 90.5045 7.44 90.9431 7.44C91.3818 7.44 91.7738 7.50067 92.1191 7.622C92.4738 7.74333 92.7771 7.91133 93.0291 8.126C93.2905 8.34067 93.5005 8.59267 93.6591 8.882C93.8271 9.17133 93.9485 9.484 94.0231 9.82H92.7631C92.6885 9.64267 92.5998 9.47933 92.4971 9.33C92.4038 9.17133 92.2825 9.036 92.1331 8.924C91.9931 8.812 91.8251 8.72333 91.6291 8.658C91.4331 8.59267 91.2045 8.56 90.9431 8.56C90.6725 8.56 90.4111 8.61133 90.1591 8.714C89.9071 8.80733 89.6831 8.95667 89.4871 9.162C89.2911 9.358 89.1325 9.61467 89.0111 9.932C88.8991 10.2493 88.8431 10.632 88.8431 11.08V11.36C88.8431 11.836 88.8991 12.2467 89.0111 12.592C89.1325 12.928 89.2911 13.2033 89.4871 13.418C89.6831 13.6233 89.9071 13.7773 90.1591 13.88C90.4111 13.9733 90.6725 14.02 90.9431 14.02C91.4005 14.02 91.7831 13.908 92.0911 13.684C92.4085 13.46 92.6325 13.152 92.7631 12.76H94.0231C93.8458 13.4973 93.4818 14.0807 92.9311 14.51C92.3805 14.93 91.7178 15.14 90.9431 15.14ZM96.4086 17.94C96.2686 17.94 96.1286 17.926 95.9886 17.898V16.778C96.1286 16.806 96.2686 16.82 96.4086 16.82C96.5486 16.82 96.6699 16.7967 96.7726 16.75C96.8753 16.7033 96.9733 16.6147 97.0666 16.484C97.1599 16.3533 97.2579 16.1667 97.3606 15.924C97.4726 15.6907 97.5986 15.3827 97.7386 15L94.5886 7.58H95.9606L98.3686 13.6L100.553 7.58H101.869L99.0686 15C98.8726 15.5227 98.6859 15.9707 98.5086 16.344C98.3313 16.7173 98.1399 17.0207 97.9346 17.254C97.7386 17.4967 97.5193 17.6693 97.2766 17.772C97.0339 17.884 96.7446 17.94 96.4086 17.94ZM103.263 7.58H109.423V15H108.191V8.672H104.495V15H103.263V7.58ZM114.737 15.14C114.261 15.14 113.808 15.0653 113.379 14.916C112.95 14.7667 112.572 14.538 112.245 14.23C111.918 13.9127 111.657 13.516 111.461 13.04C111.265 12.564 111.167 12.004 111.167 11.36V11.08C111.167 10.464 111.26 9.932 111.447 9.484C111.634 9.02667 111.881 8.64867 112.189 8.35C112.506 8.042 112.87 7.81333 113.281 7.664C113.701 7.51467 114.14 7.44 114.597 7.44C115.689 7.44 116.534 7.73867 117.131 8.336C117.728 8.93333 118.027 9.778 118.027 10.87V11.654H112.399C112.399 12.0927 112.469 12.4613 112.609 12.76C112.749 13.0587 112.931 13.3013 113.155 13.488C113.379 13.6747 113.626 13.81 113.897 13.894C114.177 13.978 114.457 14.02 114.737 14.02C115.297 14.02 115.726 13.9267 116.025 13.74C116.333 13.5533 116.552 13.2967 116.683 12.97H117.887C117.812 13.3247 117.677 13.6373 117.481 13.908C117.294 14.1787 117.061 14.4073 116.781 14.594C116.51 14.7713 116.198 14.9067 115.843 15C115.498 15.0933 115.129 15.14 114.737 15.14ZM114.667 8.56C114.378 8.56 114.098 8.602 113.827 8.686C113.556 8.76067 113.314 8.88667 113.099 9.064C112.894 9.232 112.726 9.44667 112.595 9.708C112.464 9.96933 112.399 10.282 112.399 10.646H116.865C116.856 10.2633 116.79 9.94133 116.669 9.68C116.557 9.40933 116.403 9.19467 116.207 9.036C116.011 8.868 115.778 8.74667 115.507 8.672C115.246 8.59733 114.966 8.56 114.667 8.56ZM119.778 7.58H120.926V8.98C121.178 8.48533 121.528 8.10733 121.976 7.846C122.434 7.57533 122.961 7.44 123.558 7.44C124.492 7.44 125.238 7.748 125.798 8.364C126.358 8.97067 126.638 9.876 126.638 11.08V11.36C126.638 11.9947 126.564 12.55 126.414 13.026C126.265 13.4927 126.055 13.8847 125.784 14.202C125.514 14.51 125.187 14.7433 124.804 14.902C124.431 15.0607 124.016 15.14 123.558 15.14C122.924 15.14 122.392 15 121.962 14.72C121.542 14.44 121.225 14.09 121.01 13.67V17.8H119.778V7.58ZM123.278 14.048C123.577 14.048 123.857 13.992 124.118 13.88C124.38 13.7587 124.604 13.586 124.79 13.362C124.986 13.138 125.136 12.858 125.238 12.522C125.35 12.186 125.406 11.7987 125.406 11.36V11.08C125.406 10.6787 125.35 10.3193 125.238 10.002C125.136 9.68467 124.986 9.41867 124.79 9.204C124.604 8.98 124.38 8.812 124.118 8.7C123.857 8.588 123.577 8.532 123.278 8.532C122.942 8.532 122.634 8.588 122.354 8.7C122.074 8.80267 121.836 8.952 121.64 9.148C121.444 9.33467 121.29 9.55867 121.178 9.82C121.066 10.0813 121.01 10.3613 121.01 10.66V11.78C121.01 12.116 121.066 12.424 121.178 12.704C121.29 12.984 121.444 13.222 121.64 13.418C121.836 13.614 122.074 13.768 122.354 13.88C122.634 13.992 122.942 14.048 123.278 14.048ZM128.391 7.58H129.707L132.353 12.2L134.999 7.58H136.231V15H134.999V9.61L132.801 13.39H131.821L129.623 9.61V15H128.391V7.58ZM140.582 15.14C140.171 15.14 139.807 15.084 139.49 14.972C139.182 14.8507 138.92 14.6873 138.706 14.482C138.491 14.2767 138.328 14.034 138.216 13.754C138.104 13.474 138.048 13.166 138.048 12.83C138.048 12.0927 138.262 11.5607 138.692 11.234C139.13 10.9073 139.756 10.744 140.568 10.744H142.976V10.24C142.976 9.60533 142.831 9.16667 142.542 8.924C142.262 8.68133 141.837 8.56 141.268 8.56C140.736 8.56 140.348 8.66267 140.106 8.868C139.863 9.064 139.728 9.288 139.7 9.54H138.468C138.486 9.24133 138.566 8.966 138.706 8.714C138.855 8.45267 139.051 8.22867 139.294 8.042C139.546 7.85533 139.844 7.71067 140.19 7.608C140.535 7.496 140.918 7.44 141.338 7.44C142.215 7.44 142.91 7.65 143.424 8.07C143.946 8.48067 144.208 9.15733 144.208 10.1V13.11C144.208 13.502 144.208 13.8473 144.208 14.146C144.217 14.4353 144.24 14.72 144.278 15H143.2C143.172 14.7853 143.153 14.5847 143.144 14.398C143.134 14.202 143.13 13.9827 143.13 13.74C142.934 14.132 142.616 14.4633 142.178 14.734C141.739 15.0047 141.207 15.14 140.582 15.14ZM140.848 14.02C141.137 14.02 141.408 13.9827 141.66 13.908C141.921 13.824 142.15 13.7073 142.346 13.558C142.542 13.3993 142.696 13.208 142.808 12.984C142.92 12.76 142.976 12.4987 142.976 12.2V11.696H140.778C140.32 11.696 139.961 11.7893 139.7 11.976C139.438 12.1533 139.308 12.438 139.308 12.83C139.308 13.1753 139.429 13.46 139.672 13.684C139.924 13.908 140.316 14.02 140.848 14.02ZM146.384 7.58H147.532V8.98C147.784 8.48533 148.134 8.10733 148.582 7.846C149.039 7.57533 149.566 7.44 150.164 7.44C151.097 7.44 151.844 7.748 152.404 8.364C152.964 8.97067 153.244 9.876 153.244 11.08V11.36C153.244 11.9947 153.169 12.55 153.02 13.026C152.87 13.4927 152.66 13.8847 152.39 14.202C152.119 14.51 151.792 14.7433 151.41 14.902C151.036 15.0607 150.621 15.14 150.164 15.14C149.529 15.14 148.997 15 148.568 14.72C148.148 14.44 147.83 14.09 147.616 13.67V17.8H146.384V7.58ZM149.884 14.048C150.182 14.048 150.462 13.992 150.724 13.88C150.985 13.7587 151.209 13.586 151.396 13.362C151.592 13.138 151.741 12.858 151.844 12.522C151.956 12.186 152.012 11.7987 152.012 11.36V11.08C152.012 10.6787 151.956 10.3193 151.844 10.002C151.741 9.68467 151.592 9.41867 151.396 9.204C151.209 8.98 150.985 8.812 150.724 8.7C150.462 8.588 150.182 8.532 149.884 8.532C149.548 8.532 149.24 8.588 148.96 8.7C148.68 8.80267 148.442 8.952 148.246 9.148C148.05 9.33467 147.896 9.55867 147.784 9.82C147.672 10.0813 147.616 10.3613 147.616 10.66V11.78C147.616 12.116 147.672 12.424 147.784 12.704C147.896 12.984 148.05 13.222 148.246 13.418C148.442 13.614 148.68 13.768 148.96 13.88C149.24 13.992 149.548 14.048 149.884 14.048ZM154.997 7.58H156.229V10.688H157.209L159.981 7.58H161.437L158.217 11.136L161.577 15H160.009L157.209 11.752H156.229V15H154.997V7.58ZM165.856 15.14C165.38 15.14 164.928 15.0653 164.498 14.916C164.069 14.7667 163.691 14.538 163.364 14.23C163.038 13.9127 162.776 13.516 162.58 13.04C162.384 12.564 162.286 12.004 162.286 11.36V11.08C162.286 10.464 162.38 9.932 162.566 9.484C162.753 9.02667 163 8.64867 163.308 8.35C163.626 8.042 163.99 7.81333 164.4 7.664C164.82 7.51467 165.259 7.44 165.716 7.44C166.808 7.44 167.653 7.73867 168.25 8.336C168.848 8.93333 169.146 9.778 169.146 10.87V11.654H163.518C163.518 12.0927 163.588 12.4613 163.728 12.76C163.868 13.0587 164.05 13.3013 164.274 13.488C164.498 13.6747 164.746 13.81 165.016 13.894C165.296 13.978 165.576 14.02 165.856 14.02C166.416 14.02 166.846 13.9267 167.144 13.74C167.452 13.5533 167.672 13.2967 167.802 12.97H169.006C168.932 13.3247 168.796 13.6373 168.6 13.908C168.414 14.1787 168.18 14.4073 167.9 14.594C167.63 14.7713 167.317 14.9067 166.962 15C166.617 15.0933 166.248 15.14 165.856 15.14ZM165.786 8.56C165.497 8.56 165.217 8.602 164.946 8.686C164.676 8.76067 164.433 8.88667 164.218 9.064C164.013 9.232 163.845 9.44667 163.714 9.708C163.584 9.96933 163.518 10.282 163.518 10.646H167.984C167.975 10.2633 167.91 9.94133 167.788 9.68C167.676 9.40933 167.522 9.19467 167.326 9.036C167.13 8.868 166.897 8.74667 166.626 8.672C166.365 8.59733 166.085 8.56 165.786 8.56ZM172.455 8.672H169.921V7.58H176.221V8.672H173.687V15H172.455V8.672ZM180.567 15.14C180.091 15.14 179.639 15.0653 179.209 14.916C178.78 14.7573 178.402 14.524 178.075 14.216C177.749 13.8987 177.487 13.502 177.291 13.026C177.095 12.55 176.997 11.9947 176.997 11.36V11.08C176.997 10.4827 177.095 9.95533 177.291 9.498C177.487 9.04067 177.749 8.66267 178.075 8.364C178.402 8.056 178.78 7.82733 179.209 7.678C179.639 7.51933 180.091 7.44 180.567 7.44C181.043 7.44 181.496 7.51933 181.925 7.678C182.355 7.82733 182.733 8.056 183.059 8.364C183.386 8.66267 183.647 9.04067 183.843 9.498C184.039 9.95533 184.137 10.4827 184.137 11.08V11.36C184.137 11.9947 184.039 12.55 183.843 13.026C183.647 13.502 183.386 13.8987 183.059 14.216C182.733 14.524 182.355 14.7573 181.925 14.916C181.496 15.0653 181.043 15.14 180.567 15.14ZM180.567 14.02C180.847 14.02 181.127 13.9733 181.407 13.88C181.687 13.7773 181.935 13.6233 182.149 13.418C182.364 13.2033 182.537 12.928 182.667 12.592C182.807 12.256 182.877 11.8453 182.877 11.36V11.08C182.877 10.632 182.807 10.2493 182.667 9.932C182.537 9.61467 182.364 9.35333 182.149 9.148C181.935 8.94267 181.687 8.79333 181.407 8.7C181.127 8.60667 180.847 8.56 180.567 8.56C180.287 8.56 180.007 8.60667 179.727 8.7C179.447 8.79333 179.2 8.94267 178.985 9.148C178.771 9.35333 178.593 9.61467 178.453 9.932C178.323 10.2493 178.257 10.632 178.257 11.08V11.36C178.257 11.8453 178.323 12.256 178.453 12.592C178.593 12.928 178.771 13.2033 178.985 13.418C179.2 13.6233 179.447 13.7773 179.727 13.88C180.007 13.9733 180.287 14.02 180.567 14.02ZM185.882 7.58H189.102C190.016 7.58 190.688 7.77133 191.118 8.154C191.547 8.52733 191.762 9.01267 191.762 9.61C191.762 9.76867 191.734 9.932 191.678 10.1C191.622 10.2587 191.542 10.408 191.44 10.548C191.346 10.688 191.23 10.8093 191.09 10.912C190.959 11.0147 190.81 11.094 190.642 11.15C191.099 11.262 191.444 11.4767 191.678 11.794C191.92 12.102 192.042 12.466 192.042 12.886C192.042 13.53 191.827 14.0433 191.398 14.426C190.968 14.8087 190.296 15 189.382 15H185.882V7.58ZM189.382 13.908C189.904 13.908 190.273 13.8147 190.488 13.628C190.702 13.4413 190.81 13.1753 190.81 12.83C190.81 12.4753 190.702 12.2047 190.488 12.018C190.273 11.822 189.904 11.724 189.382 11.724H187.114V13.908H189.382ZM189.102 10.716C189.634 10.716 190.002 10.6227 190.208 10.436C190.422 10.2493 190.53 9.99267 190.53 9.666C190.53 9.358 190.422 9.11533 190.208 8.938C190.002 8.76067 189.634 8.672 189.102 8.672H187.114V10.716H189.102ZM196.738 11.696V10.604L199.818 8V9.372L197.718 11.122L199.818 12.872V14.3L196.738 11.696ZM199.958 11.696V10.604L203.038 8V9.372L200.938 11.122L203.038 12.872V14.3L199.958 11.696ZM205.275 5.2H206.591V9.386H208.453C208.49 8.62067 208.616 7.96733 208.831 7.426C209.055 6.87533 209.34 6.42733 209.685 6.082C210.03 5.72733 210.432 5.47067 210.889 5.312C211.346 5.144 211.832 5.06 212.345 5.06C212.886 5.06 213.4 5.15333 213.885 5.34C214.37 5.51733 214.795 5.802 215.159 6.194C215.523 6.57667 215.808 7.076 216.013 7.692C216.228 8.29867 216.335 9.03133 216.335 9.89V10.17C216.335 11.066 216.228 11.8267 216.013 12.452C215.808 13.0773 215.523 13.5907 215.159 13.992C214.795 14.3933 214.37 14.6873 213.885 14.874C213.4 15.0513 212.886 15.14 212.345 15.14C211.822 15.14 211.328 15.056 210.861 14.888C210.404 14.72 209.998 14.4493 209.643 14.076C209.298 13.7027 209.018 13.2267 208.803 12.648C208.588 12.0693 208.467 11.3647 208.439 10.534H206.591V15H205.275V5.2ZM212.345 13.964C212.69 13.964 213.022 13.894 213.339 13.754C213.656 13.614 213.932 13.3947 214.165 13.096C214.398 12.788 214.585 12.396 214.725 11.92C214.865 11.4347 214.935 10.8513 214.935 10.17V9.89C214.935 9.246 214.865 8.69533 214.725 8.238C214.585 7.77133 214.398 7.39333 214.165 7.104C213.932 6.80533 213.656 6.586 213.339 6.446C213.022 6.306 212.69 6.236 212.345 6.236C211.99 6.236 211.654 6.306 211.337 6.446C211.029 6.586 210.758 6.80533 210.525 7.104C210.292 7.39333 210.105 7.77133 209.965 8.238C209.825 8.69533 209.755 9.246 209.755 9.89V10.17C209.755 10.8513 209.825 11.4347 209.965 11.92C210.105 12.396 210.292 12.788 210.525 13.096C210.758 13.3947 211.029 13.614 211.337 13.754C211.654 13.894 211.99 13.964 212.345 13.964ZM220.191 11.178L217.531 7.58H218.903L221.171 10.688H222.025V7.58H223.257V10.688H224.097L226.407 7.58H227.751L225.091 11.136L227.891 15H226.435L224.097 11.752H223.257V15H222.025V11.752H221.171L218.819 15H217.391L220.191 11.178ZM229.358 7.58H230.59V10.674H234.426V7.58H235.658V15H234.426V11.766H230.59V15H229.358V7.58ZM237.903 7.58H239.135V10.38H240.633C241.567 10.38 242.253 10.5853 242.691 10.996C243.139 11.4067 243.363 11.976 243.363 12.704C243.363 13.4133 243.139 13.9733 242.691 14.384C242.253 14.7947 241.567 15 240.633 15H237.903V7.58ZM240.563 13.908C241.142 13.908 241.548 13.8053 241.781 13.6C242.015 13.3947 242.131 13.0913 242.131 12.69C242.131 12.2887 242.015 11.9853 241.781 11.78C241.548 11.5747 241.142 11.472 240.563 11.472H239.135V13.908H240.563ZM244.511 7.58H245.743V15H244.511V7.58ZM247.979 7.58H249.211V13.18L253.047 7.58H254.279V15H253.047V9.4L249.211 15H247.979V7.58ZM251.129 6.67C250.401 6.67 249.869 6.516 249.533 6.208C249.197 5.89067 249.029 5.438 249.029 4.85H250.233C250.233 5.48467 250.532 5.802 251.129 5.802C251.745 5.802 252.053 5.48467 252.053 4.85H253.229C253.229 5.438 253.061 5.89067 252.725 6.208C252.389 6.516 251.857 6.67 251.129 6.67ZM259.324 10.604V11.696L256.244 14.3V12.928L258.344 11.178L256.244 9.428V8L259.324 10.604ZM262.544 10.604V11.696L259.464 14.3V12.928L261.564 11.178L259.464 9.428V8L262.544 10.604Z" fill="#424858"/>
</svg>
