<svg width="28" height="28" viewBox="0 0 28 28" fill="none" xmlns="http://www.w3.org/2000/svg">
<g id="icon / outlined / other / shop / shopping cart">
<path id="Vector" d="M10.4997 25.6666C11.144 25.6666 11.6663 25.1442 11.6663 24.4999C11.6663 23.8556 11.144 23.3333 10.4997 23.3333C9.85534 23.3333 9.33301 23.8556 9.33301 24.4999C9.33301 25.1442 9.85534 25.6666 10.4997 25.6666Z" fill="#DA221A" stroke="#DA221A" stroke-width="2" stroke-linecap="round" stroke-linejoin="round"/>
<path id="Vector_2" d="M23.3337 25.6666C23.978 25.6666 24.5003 25.1442 24.5003 24.4999C24.5003 23.8556 23.978 23.3333 23.3337 23.3333C22.6893 23.3333 22.167 23.8556 22.167 24.4999C22.167 25.1442 22.6893 25.6666 23.3337 25.6666Z" fill="#DA221A" stroke="#DA221A" stroke-width="2" stroke-linecap="round" stroke-linejoin="round"/>
<path id="Vector_3" d="M1.16699 1.16675H5.83366L8.96033 16.7884C9.06701 17.3255 9.35922 17.808 9.7858 18.1514C10.2124 18.4948 10.7461 18.6772 11.2937 18.6667H22.6337C23.1812 18.6772 23.7149 18.4948 24.1415 18.1514C24.5681 17.808 24.8603 17.3255 24.967 16.7884L26.8337 7.00008H7.00033" stroke="#DA221A" stroke-width="2" stroke-linecap="round" stroke-linejoin="round"/>
</g>
</svg>
