<svg width="28" height="28" viewBox="0 0 28 28" fill="none" xmlns="http://www.w3.org/2000/svg">
<g id="icon / outlined / action / thumb / thumb up">
<path id="Vector" d="M8.16683 25.6666H4.66683C4.04799 25.6666 3.4545 25.4208 3.01691 24.9832C2.57933 24.5456 2.3335 23.9521 2.3335 23.3333V15.1666C2.3335 14.5477 2.57933 13.9543 3.01691 13.5167C3.4545 13.0791 4.04799 12.8333 4.66683 12.8333H8.16683M16.3335 10.4999V5.83325C16.3335 4.90499 15.9647 4.01476 15.3084 3.35838C14.652 2.702 13.7618 2.33325 12.8335 2.33325L8.16683 12.8333V25.6666H21.3268C21.8895 25.6729 22.4356 25.4757 22.8644 25.1113C23.2932 24.7468 23.5758 24.2396 23.6602 23.6833L25.2702 13.1833C25.3209 12.8488 25.2984 12.5074 25.2041 12.1825C25.1098 11.8577 24.9459 11.5573 24.724 11.302C24.502 11.0468 24.2273 10.8428 23.9187 10.7043C23.6101 10.5658 23.2751 10.4961 22.9368 10.4999H16.3335Z" stroke="#DA221A" stroke-width="2" stroke-linecap="round" stroke-linejoin="round"/>
</g>
</svg>
